<svg xmlns="http://www.w3.org/2000/svg" viewBox="0 0 1937.04 1016.2"><defs><style>.cls-1{opacity:0.4;}.cls-2{fill:#dbd6dc;}.cls-3{fill:#f5eff6;}.cls-4{fill:#9b5140;}.cls-5{fill:#e9e9e9;}.cls-6{fill:#fff;}.cls-7{fill:#42393d;}.cls-8{fill:#618dc1;}.cls-9{fill:#883d30;}.cls-10{fill:#d6826f;}.cls-11{fill:#de9c85;}.cls-12{fill:#cba19f;}.cls-13{fill:#2e262a;}.cls-14{fill:#e36e67;}.cls-15{fill:#d8544e;}.cls-16{fill:#e2bdb6;}.cls-17{fill:#699dee;}.cls-18{fill:#e9f3fe;}.cls-19{fill:#5d86e2;}.cls-20{fill:#192e4f;}</style></defs><g id="Layer_2" data-name="Layer 2"><g id="_ëîé_1" data-name="‘ëîé_1"><g class="cls-1"><rect class="cls-2" x="634.59" y="62.39" width="175.77" height="144.94" transform="translate(1444.96 269.71) rotate(180)"/><rect class="cls-3" x="722.48" y="62.39" width="175.77" height="144.94" transform="translate(1620.73 269.71) rotate(180)"/><polygon class="cls-4" points="634.7 170.56 662.55 170.56 660.1 162.73 662.55 157.13 634.7 157.13 634.7 170.56"/><polygon class="cls-2" points="722.48 107.24 750.33 107.24 747.88 99.4 750.33 93.8 722.48 93.8 722.48 107.24"/><polygon class="cls-4" points="722.48 93.8 694.63 93.8 697.08 101.64 694.63 107.24 722.48 107.24 722.48 93.8"/><polygon class="cls-2" points="898.26 172.12 870.4 172.12 872.86 179.96 870.4 185.56 898.26 185.56 898.26 172.12"/><rect class="cls-5" x="836.16" y="72.21" width="50.58" height="19.68"/><rect class="cls-2" x="324.18" y="62.39" width="175.77" height="144.94" transform="translate(824.13 269.71) rotate(180)"/><rect class="cls-3" x="412.07" y="62.39" width="175.77" height="144.94" transform="translate(999.9 269.71) rotate(180)"/><polygon class="cls-4" points="324.28 170.56 352.13 170.56 349.68 162.73 352.13 157.13 324.28 157.13 324.28 170.56"/><polygon class="cls-2" points="412.07 107.24 439.92 107.24 437.46 99.4 439.92 93.8 412.07 93.8 412.07 107.24"/><polygon class="cls-4" points="412.07 93.8 384.21 93.8 386.67 101.64 384.21 107.24 412.07 107.24 412.07 93.8"/><polygon class="cls-2" points="587.84 172.12 559.99 172.12 562.44 179.96 559.99 185.56 587.84 185.56 587.84 172.12"/><rect class="cls-5" x="525.75" y="72.21" width="50.58" height="19.68"/><rect class="cls-3" x="210.48" y="207.32" width="67.61" height="806.38"/><rect class="cls-3" x="951.7" y="207.32" width="56.2" height="806.38"/><rect class="cls-3" x="278.09" y="207.32" width="729.81" height="20.99"/><rect class="cls-2" x="278.09" y="589.53" width="729.81" height="20.99"/><rect class="cls-2" x="278.09" y="910.08" width="729.81" height="20.99"/><rect class="cls-2" x="646.77" y="439.68" width="181.73" height="149.85" transform="translate(1475.26 1029.2) rotate(180)"/><rect class="cls-3" x="737.63" y="439.68" width="181.73" height="149.85" transform="translate(1656.99 1029.2) rotate(180)"/><polygon class="cls-4" points="646.87 551.52 675.67 551.52 673.13 543.42 675.67 537.63 646.87 537.63 646.87 551.52"/><polygon class="cls-2" points="737.63 486.05 766.42 486.05 763.89 477.95 766.42 472.16 737.63 472.16 737.63 486.05"/><polygon class="cls-4" points="737.63 472.16 708.83 472.16 711.37 480.26 708.83 486.05 737.63 486.05 737.63 472.16"/><polygon class="cls-2" points="919.36 553.13 890.57 553.13 893.1 561.24 890.57 567.02 919.36 567.02 919.36 553.13"/><rect class="cls-5" x="855.16" y="449.84" width="52.3" height="20.35"/><rect class="cls-2" x="413.55" y="439.68" width="181.73" height="149.85" transform="translate(1008.83 1029.2) rotate(180)"/><rect class="cls-3" x="504.42" y="439.68" width="181.73" height="149.85" transform="translate(1190.56 1029.2) rotate(180)"/><polygon class="cls-4" points="413.66 551.52 442.45 551.52 439.92 543.42 442.45 537.63 413.66 537.63 413.66 551.52"/><polygon class="cls-2" points="504.42 486.05 533.21 486.05 530.67 477.95 533.21 472.16 504.42 472.16 504.42 486.05"/><polygon class="cls-4" points="504.42 472.16 475.62 472.16 478.16 480.26 475.62 486.05 504.42 486.05 504.42 472.16"/><polygon class="cls-2" points="686.15 553.13 657.35 553.13 659.89 561.24 657.35 567.02 686.15 567.02 686.15 553.13"/><polygon class="cls-2" points="686.15 470.18 657.35 470.18 659.89 478.29 657.35 484.08 686.15 484.08 686.15 470.18"/><rect class="cls-5" x="522.77" y="540.32" width="85.23" height="33.16"/><rect class="cls-2" x="646.77" y="780.09" width="157.07" height="129.51" transform="translate(1450.6 1689.69) rotate(180)"/><rect class="cls-3" x="725.3" y="780.09" width="157.07" height="129.51" transform="translate(1607.67 1689.69) rotate(180)"/><polygon class="cls-4" points="646.86 876.76 671.75 876.76 669.55 869.75 671.75 864.75 646.86 864.75 646.86 876.76"/><polygon class="cls-2" points="725.3 820.17 750.19 820.17 748 813.16 750.19 808.16 725.3 808.16 725.3 820.17"/><polygon class="cls-4" points="725.3 808.16 700.41 808.16 702.6 815.16 700.41 820.17 725.3 820.17 725.3 808.16"/><polygon class="cls-2" points="882.37 878.15 857.48 878.15 859.68 885.15 857.48 890.15 882.37 890.15 882.37 878.15"/><rect class="cls-6" x="826.89" y="788.87" width="45.2" height="17.58"/><rect class="cls-2" x="348.46" y="759.76" width="181.73" height="149.85" transform="translate(878.64 1669.36) rotate(180)"/><rect class="cls-3" x="439.32" y="759.76" width="181.73" height="149.85" transform="translate(1060.37 1669.36) rotate(180)"/><polygon class="cls-7" points="348.56 871.6 377.36 871.6 374.82 863.5 377.36 857.71 348.56 857.71 348.56 871.6"/><polygon class="cls-2" points="439.32 806.13 468.12 806.13 465.58 798.02 468.12 792.24 439.32 792.24 439.32 806.13"/><polygon class="cls-7" points="439.32 792.24 410.52 792.24 413.06 800.34 410.52 806.13 439.32 806.13 439.32 792.24"/><polygon class="cls-8" points="621.05 873.21 592.25 873.21 594.79 881.31 592.25 887.1 621.05 887.1 621.05 873.21"/><rect class="cls-5" x="556.85" y="769.92" width="52.29" height="20.34"/><rect class="cls-2" x="399.61" y="324.44" width="138.93" height="114.56" transform="translate(938.14 763.43) rotate(180)"/><rect class="cls-3" x="469.07" y="324.44" width="138.93" height="114.56" transform="translate(1077.07 763.43) rotate(180)"/><polygon class="cls-4" points="399.69 409.94 421.7 409.94 419.76 403.75 421.7 399.32 399.69 399.32 399.69 409.94"/><polygon class="cls-2" points="469.07 359.89 491.09 359.89 489.15 353.69 491.09 349.27 469.07 349.27 469.07 359.89"/><polygon class="cls-4" points="469.07 349.27 447.06 349.27 449 355.46 447.06 359.89 469.07 359.89 469.07 349.27"/><polygon class="cls-2" points="608 411.17 585.99 411.17 587.93 417.37 585.99 421.79 608 421.79 608 411.17"/><rect class="cls-5" x="558.93" y="332.2" width="39.98" height="15.55"/><rect class="cls-2" x="647.83" y="324.44" width="138.93" height="114.56" transform="translate(1434.59 763.43) rotate(180)"/><rect class="cls-3" x="717.29" y="324.44" width="138.93" height="114.56" transform="translate(1573.52 763.43) rotate(180)"/><polygon class="cls-4" points="647.91 409.94 669.92 409.94 667.99 403.75 669.92 399.32 647.91 399.32 647.91 409.94"/><polygon class="cls-2" points="717.29 359.89 739.31 359.89 737.37 353.69 739.31 349.27 717.29 349.27 717.29 359.89"/><polygon class="cls-4" points="717.29 349.27 695.28 349.27 697.22 355.46 695.28 359.89 717.29 359.89 717.29 349.27"/><polygon class="cls-2" points="856.23 411.17 834.21 411.17 836.15 417.37 834.21 421.79 856.23 421.79 856.23 411.17"/><rect class="cls-5" x="807.15" y="332.2" width="39.98" height="15.55"/></g><path class="cls-7" d="M1760.49,789.75l-3.46-1c9.14-31-7.44-63.36-36.94-72l-74.33-21.87c-15.29-4.5-23.89-21.26-19.15-37.35,15.3-52-12.47-106.16-61.91-120.71l1.07-3.64c51.35,15.11,80.19,71.35,64.3,125.37-4.15,14.08,3.37,28.75,16.76,32.69l74.33,21.87C1752.57,722.3,1770.21,756.71,1760.49,789.75Z"/><path class="cls-7" d="M1753,815.26l-3.45-1c9.13-31-7.44-63.35-37-72l-74.32-21.87c-15.3-4.5-23.89-21.25-19.16-37.34,15.31-52-12.47-106.17-61.91-120.71l1.07-3.64c51.35,15.11,80.19,71.35,64.3,125.36-4.15,14.09,3.38,28.76,16.77,32.7l74.32,21.87C1745.06,747.81,1762.71,782.22,1753,815.26Z"/><rect class="cls-9" x="1210.38" y="438.42" width="156.49" height="129.03"/><rect class="cls-4" x="1132.14" y="438.42" width="156.49" height="129.03"/><polygon class="cls-10" points="1366.78 534.73 1341.98 534.73 1344.16 527.76 1341.98 522.77 1366.78 522.77 1366.78 534.73"/><polygon class="cls-11" points="1288.62 478.36 1263.83 478.36 1266.01 471.38 1263.83 466.39 1288.62 466.39 1288.62 478.36"/><polygon class="cls-10" points="1288.62 466.39 1313.42 466.39 1311.24 473.37 1313.42 478.36 1288.62 478.36 1288.62 466.39"/><polygon class="cls-11" points="1132.13 536.12 1156.93 536.12 1154.74 543.1 1156.93 548.08 1132.13 548.08 1132.13 536.12"/><rect class="cls-3" x="1142.38" y="447.17" width="45.03" height="17.52" transform="translate(2329.79 911.86) rotate(180)"/><path class="cls-7" d="M1372.49,87.54c-22.44,0-46-3.56-59-11.09-20.77-12-47.12-6.91-47.39-6.85l-.64-3.19c1.13-.23,27.8-5.39,49.66,7.22,21.53,12.43,75.05,13.53,99.28,5.29,23.87-8.13,55.56-16.87,68.74-16.87V65.3C1470.3,65.3,1439,74,1415.42,82,1404.71,85.64,1388.89,87.54,1372.49,87.54Z"/><rect class="cls-7" x="1233.24" y="319.49" width="10.26" height="66.95"/><rect class="cls-7" x="1253.56" y="319.49" width="10.26" height="66.95"/><path class="cls-7" d="M1372.49,80.33c-22.44,0-46-3.56-59-11.09-20.77-12-47.12-6.91-47.39-6.85l-.64-3.19c1.13-.23,27.8-5.39,49.66,7.22,21.53,12.43,75.05,13.54,99.28,5.29,23.87-8.13,55.56-16.87,68.74-16.87v3.25c-12.81,0-44.07,8.65-67.69,16.69C1404.71,78.43,1388.89,80.33,1372.49,80.33Z"/><path class="cls-7" d="M1588.61,471.66h-4.26v-3.25h4.26a35.83,35.83,0,0,0,35.79-35.79V62.11a35.82,35.82,0,0,0-35.79-35.79H1557V23.07h31.59a39.08,39.08,0,0,1,39,39V432.62A39.08,39.08,0,0,1,1588.61,471.66Z"/><path class="cls-7" d="M1584.35,440.29V437a24.92,24.92,0,0,0,24.89-24.9V67.74A24.17,24.17,0,0,0,1585.1,43.6h-25V40.35h25a27.41,27.41,0,0,1,27.39,27.39v344.4A28.18,28.18,0,0,1,1584.35,440.29Z"/><rect class="cls-3" x="1179.93" y="90.59" width="134.34" height="243.76" rx="22.84"/><circle class="cls-2" cx="1216.76" cy="125.28" r="11.69" transform="translate(841.52 1289.49) rotate(-78.01)"/><path class="cls-2" d="M1205.07,292a11.69,11.69,0,1,1,11.69,11.69A11.69,11.69,0,0,1,1205.07,292Z"/><path class="cls-2" d="M1265.76,125.28A11.69,11.69,0,1,1,1277.45,137,11.69,11.69,0,0,1,1265.76,125.28Z"/><path class="cls-2" d="M1265.76,292a11.69,11.69,0,1,1,11.69,11.69A11.69,11.69,0,0,1,1265.76,292Z"/><path class="cls-4" d="M1297,397.93a17,17,0,0,1-1.53,7h-91.82a16.88,16.88,0,0,1-1.54-7c0-15.21,21.25-27.55,47.45-27.55S1297,382.72,1297,397.93Z"/><path class="cls-7" d="M1376.52,429.34V554.12a30.44,30.44,0,0,1-13.16,25.06l-38,26.25a6,6,0,0,1-8.35-1.54h0a6,6,0,0,1,1.53-8.34l38.06-26.25a18.45,18.45,0,0,0,8-15.18V429.34a24.44,24.44,0,0,0-24.44-24.44H1159a24.44,24.44,0,0,0-24.43,24.44V553.41a18.32,18.32,0,0,0,8.67,15.63l42.51,26.59a6,6,0,0,1,1.91,8.26h0a6,6,0,0,1-8.27,1.91l-42.52-26.57a30.3,30.3,0,0,1-14.31-25.82V429.34A36.44,36.44,0,0,1,1159,392.9h181A36.43,36.43,0,0,1,1376.52,429.34Z"/><path class="cls-4" d="M1279.45,90.59h-74.38V38.4A38.4,38.4,0,0,1,1243.47,0h0a38.4,38.4,0,0,1,38.4,38.4V88.17A2.42,2.42,0,0,1,1279.45,90.59Z"/><rect class="cls-12" x="1473.33" width="102.51" height="741.25" rx="32.29"/><rect class="cls-4" x="1461.09" y="104.44" width="123.27" height="494.45" rx="15.78"/><path class="cls-4" d="M1476.35,695.51h99.9a15.27,15.27,0,0,1,15.27,15.27v67.95a0,0,0,0,1,0,0H1476.35a15.27,15.27,0,0,1-15.27-15.27V710.77A15.27,15.27,0,0,1,1476.35,695.51Z"/><path class="cls-2" d="M1802.41,942.75H600.21a82,82,0,0,1-82-82h0a82,82,0,0,1,82-82h1202.2a82,82,0,0,1,82,82h0A82,82,0,0,1,1802.41,942.75Z"/><path class="cls-2" d="M1884.43,860.73a82,82,0,0,1-82,82H1598.57a7.91,7.91,0,0,1-7.91-7.91V786.63a7.91,7.91,0,0,1,7.91-7.91h203.84A82,82,0,0,1,1884.43,860.73Z"/><path class="cls-3" d="M1825.55,939.63c-.31,1-.63,2.07-1,3.12q-4.12,13.26-9.09,26.92c-.46,1.27-.92,2.54-1.4,3.81q-6,16.26-13.36,33.13h0l-118.73.06-1090,.55v-67.6Z"/><path class="cls-3" d="M952.46,851.88l-9.25-4.29a2.26,2.26,0,0,1-1.29-2c0-1.09-.1-2.18-.22-3.27a38,38,0,0,0-1.1-5.92,2.23,2.23,0,0,1,.81-2.38l8.48-6.46a2.21,2.21,0,0,0,.52-2.93l-5.22-8.23a2.16,2.16,0,0,0-2.77-.79l-8.8,4.33a2.2,2.2,0,0,1-2.58-.46,39.23,39.23,0,0,0-9.91-7.48,2.22,2.22,0,0,1-1.11-2.5l1.42-5.8a2.25,2.25,0,0,0-1.41-2.64l-9.09-3.28a1.4,1.4,0,0,0-.57-.13,2.14,2.14,0,0,0-2.18,1.26l-3.22,6.9-.78,1.69a37.69,37.69,0,0,0-5.5.21,39.2,39.2,0,0,0-7.21,1.46,2.19,2.19,0,0,1-2.38-.76l-5.19-6.84a2.25,2.25,0,0,0-3-.53l-6.3,4-1.8,1.15a2.27,2.27,0,0,0-.83,2.93l3.6,7.36a2.15,2.15,0,0,1-.4,2.53,40.08,40.08,0,0,0-5.21,6.55c-.14.19-.26.39-.38.58a.56.56,0,0,1-.14.2,2.18,2.18,0,0,1-2.32.81l-9.42-2.3c-.1,0-.22,0-.32-.06a2.24,2.24,0,0,0-2.31,1.47l-3.3,9.06a2.27,2.27,0,0,0,1.17,2.81l9.65,4.47a2.16,2.16,0,0,1,1.27,2.11,39.6,39.6,0,0,0,.2,6q.18,1.63.48,3.21a2.3,2.3,0,0,1-.87,2.25l-8.15,6.22a2.19,2.19,0,0,0-.52,2.9l5.17,8.14a2.3,2.3,0,0,0,3,.83l7-3.42a2.25,2.25,0,0,1,2.71.57,39.5,39.5,0,0,0,9.08,8,2.22,2.22,0,0,1,1,2.43l-2.09,8.48a2.34,2.34,0,0,0,1.45,2.72l9,3.28a2.21,2.21,0,0,0,2.76-1.15l.19-.4,3.73-8a2.24,2.24,0,0,1,2.22-1.3h0a40.28,40.28,0,0,0,6.93-.14c1.25-.13,2.46-.34,3.68-.58a2.23,2.23,0,0,1,2.23.82l5.27,6.94a2.3,2.3,0,0,0,3.05.56l8.1-5.14a2.31,2.31,0,0,0,.58-.54,2.26,2.26,0,0,0,.25-2.35l-2.91-5.88a2.3,2.3,0,0,1,.15-2.23,2.67,2.67,0,0,1,.42-.47,39,39,0,0,0,9.68-12.09,2.21,2.21,0,0,1,2.11-1.19,1.69,1.69,0,0,1,.38.07l7.62,1.86a2.24,2.24,0,0,0,2.64-1.4l.08-.21,3.22-8.83A2.29,2.29,0,0,0,952.46,851.88Zm-30,2.92a21.37,21.37,0,0,1-5.69,7.9,14.15,14.15,0,0,1-1.66,1.23,24.29,24.29,0,0,1-7.59,3.17,21.12,21.12,0,0,1-25.43-24.32,25.41,25.41,0,0,1,1.25-4.72,20.48,20.48,0,0,1,7-8.74l.87-.54C909.32,818.2,929.63,834.83,922.49,854.8Z"/><path class="cls-3" d="M1015.07,891.69l-6.66-3.09a1.62,1.62,0,0,1-.92-1.42c0-.78-.08-1.56-.16-2.35a27.76,27.76,0,0,0-.79-4.25,1.64,1.64,0,0,1,.57-1.72l6.1-4.64a1.58,1.58,0,0,0,.38-2.11l-3.75-5.92a1.57,1.57,0,0,0-2-.57l-6.33,3.12a1.56,1.56,0,0,1-1.84-.34,28.52,28.52,0,0,0-7.14-5.38,1.59,1.59,0,0,1-.8-1.79l1-4.17a1.63,1.63,0,0,0-1-1.9l-6.54-2.37a1.51,1.51,0,0,0-.41-.09,1.57,1.57,0,0,0-1.58.91l-2.31,5-.56,1.21a31,31,0,0,0-4,.14,29,29,0,0,0-5.18,1.06,1.56,1.56,0,0,1-1.71-.55l-3.74-4.91a1.63,1.63,0,0,0-2.16-.39L959.07,858l-1.29.83a1.64,1.64,0,0,0-.6,2.11l2.59,5.3a1.56,1.56,0,0,1-.28,1.82,27.74,27.74,0,0,0-3.75,4.7c-.1.14-.19.28-.28.43a1.1,1.1,0,0,1-.09.14,1.61,1.61,0,0,1-1.68.58l-6.77-1.65a1,1,0,0,0-.24,0,1.61,1.61,0,0,0-1.66,1l-2.37,6.52a1.64,1.64,0,0,0,.84,2l7,3.21a1.59,1.59,0,0,1,.91,1.52,29,29,0,0,0,.14,4.35c.09.77.2,1.55.35,2.3a1.63,1.63,0,0,1-.63,1.62l-5.85,4.47a1.56,1.56,0,0,0-.38,2.09l3.72,5.85a1.64,1.64,0,0,0,2.11.6l5-2.46a1.61,1.61,0,0,1,1.95.42,28,28,0,0,0,6.53,5.76,1.61,1.61,0,0,1,.7,1.76l-1.5,6.09a1.68,1.68,0,0,0,1,2l6.5,2.36a1.58,1.58,0,0,0,2-.82l.13-.29,2.69-5.78a1.63,1.63,0,0,1,1.6-.94h0a26.75,26.75,0,0,0,5-.1c.9-.09,1.78-.24,2.65-.41a1.6,1.6,0,0,1,1.61.59l3.79,5a1.64,1.64,0,0,0,2.19.4l5.84-3.7a1.64,1.64,0,0,0,.59-2.07l-2.1-4.23a1.65,1.65,0,0,1,.12-1.61,1.17,1.17,0,0,1,.3-.33,28.25,28.25,0,0,0,7-8.7,1.59,1.59,0,0,1,1.52-.85,1.36,1.36,0,0,1,.27,0l5.48,1.34a1.61,1.61,0,0,0,1.9-1l.05-.15,2.32-6.35A1.64,1.64,0,0,0,1015.07,891.69Zm-21.55,2.1a15.53,15.53,0,0,1-4.1,5.68,8.92,8.92,0,0,1-1.2.88,17.45,17.45,0,0,1-5.45,2.29,15.19,15.19,0,0,1-18.29-17.5,17.91,17.91,0,0,1,.89-3.39,14.83,14.83,0,0,1,5.06-6.29l.64-.39C984,867.47,998.65,879.42,993.52,893.79Z"/><path class="cls-3" d="M1307.25,851.88l-9.25-4.29a2.26,2.26,0,0,1-1.29-2c0-1.09-.1-2.18-.22-3.27a38,38,0,0,0-1.1-5.92,2.24,2.24,0,0,1,.8-2.38l8.48-6.46a2.17,2.17,0,0,0,.52-2.93l-5.21-8.23a2.16,2.16,0,0,0-2.77-.79L1288.4,820a2.19,2.19,0,0,1-2.57-.46,38.93,38.93,0,0,0-9.92-7.48,2.25,2.25,0,0,1-1.11-2.5l1.44-5.8a2.28,2.28,0,0,0-1.41-2.64l-9.1-3.28a1.43,1.43,0,0,0-.56-.13,2.18,2.18,0,0,0-2.2,1.26l-3.21,6.9-.77,1.69a37.83,37.83,0,0,0-5.51.21,39.09,39.09,0,0,0-7.2,1.46,2.2,2.2,0,0,1-2.39-.76l-5.19-6.84a2.25,2.25,0,0,0-3-.53l-6.3,4-1.79,1.15a2.27,2.27,0,0,0-.84,2.93l3.61,7.36a2.18,2.18,0,0,1-.4,2.53,38.54,38.54,0,0,0-5.21,6.55,6.39,6.39,0,0,0-.38.58,1.73,1.73,0,0,1-.14.2,2.21,2.21,0,0,1-2.33.81l-9.42-2.3c-.1,0-.21,0-.31-.06a2.26,2.26,0,0,0-2.32,1.47l-3.29,9.06a2.25,2.25,0,0,0,1.16,2.81l9.65,4.47a2.14,2.14,0,0,1,1.27,2.11,39.6,39.6,0,0,0,.2,6c.11,1.09.28,2.16.48,3.21a2.31,2.31,0,0,1-.86,2.25l-8.15,6.22a2.17,2.17,0,0,0-.52,2.9l5.17,8.14a2.28,2.28,0,0,0,2.94.83l7-3.42a2.27,2.27,0,0,1,2.72.57,39,39,0,0,0,9.07,8,2.23,2.23,0,0,1,1,2.43l-2.08,8.48a2.32,2.32,0,0,0,1.44,2.72l9,3.28a2.2,2.2,0,0,0,2.76-1.15l.2-.4,3.73-8a2.24,2.24,0,0,1,2.22-1.3h0a40.16,40.16,0,0,0,6.92-.14c1.25-.13,2.47-.34,3.69-.58a2.22,2.22,0,0,1,2.23.82l5.27,6.94a2.31,2.31,0,0,0,3.06.56l8.1-5.14a2.72,2.72,0,0,0,.58-.54,2.28,2.28,0,0,0,.23-2.35l-2.89-5.88a2.27,2.27,0,0,1,.15-2.23,2.06,2.06,0,0,1,.42-.47,39.11,39.11,0,0,0,9.67-12.09,2.22,2.22,0,0,1,2.11-1.19,1.59,1.59,0,0,1,.38.07l7.62,1.86a2.24,2.24,0,0,0,2.64-1.4l.07-.21,3.22-8.83A2.29,2.29,0,0,0,1307.25,851.88Zm-30,2.92a21.37,21.37,0,0,1-5.69,7.9,15,15,0,0,1-1.65,1.23,24.34,24.34,0,0,1-7.6,3.17,21.12,21.12,0,0,1-25.44-24.32,26.27,26.27,0,0,1,1.26-4.72,20.53,20.53,0,0,1,7-8.74c.3-.19.59-.37.89-.54C1264.11,818.2,1284.41,834.83,1277.28,854.8Z"/><path class="cls-3" d="M1369.86,891.69l-6.65-3.09a1.61,1.61,0,0,1-.93-1.42c0-.78-.07-1.56-.16-2.35a26.6,26.6,0,0,0-.79-4.25,1.61,1.61,0,0,1,.58-1.72l6.09-4.64a1.57,1.57,0,0,0,.38-2.11l-3.75-5.92a1.56,1.56,0,0,0-2-.57l-6.34,3.12a1.58,1.58,0,0,1-1.85-.34,28.29,28.29,0,0,0-7.13-5.38,1.59,1.59,0,0,1-.8-1.79l1-4.17a1.63,1.63,0,0,0-1-1.9l-6.54-2.37a1.37,1.37,0,0,0-.4-.09,1.58,1.58,0,0,0-1.58.91l-2.31,5-.56,1.21a31,31,0,0,0-4,.14A29,29,0,0,0,1326,861a1.55,1.55,0,0,1-1.71-.55l-3.74-4.91a1.63,1.63,0,0,0-2.16-.39l-4.52,2.86-1.3.83a1.64,1.64,0,0,0-.6,2.11l2.59,5.3a1.56,1.56,0,0,1-.28,1.82,28.76,28.76,0,0,0-3.75,4.7c-.11.14-.18.28-.28.43l-.09.14a1.61,1.61,0,0,1-1.68.58l-6.77-1.65a1,1,0,0,0-.23,0,1.61,1.61,0,0,0-1.66,1l-2.37,6.52a1.62,1.62,0,0,0,.84,2l6.93,3.21a1.57,1.57,0,0,1,.92,1.52,27.74,27.74,0,0,0,.14,4.35c.08.77.2,1.55.35,2.3a1.65,1.65,0,0,1-.63,1.62l-5.86,4.47a1.57,1.57,0,0,0-.37,2.09l3.71,5.85a1.65,1.65,0,0,0,2.12.6l5-2.46a1.61,1.61,0,0,1,2,.42,28,28,0,0,0,6.53,5.76,1.63,1.63,0,0,1,.7,1.76l-1.49,6.09a1.66,1.66,0,0,0,1,2l6.5,2.36a1.59,1.59,0,0,0,2-.82l.14-.29,2.68-5.78a1.63,1.63,0,0,1,1.59-.94h0a26.93,26.93,0,0,0,5-.1c.89-.09,1.77-.24,2.65-.41a1.57,1.57,0,0,1,1.59.59l3.8,5a1.66,1.66,0,0,0,2.2.4l5.82-3.7a1.54,1.54,0,0,0,.42-.38,1.64,1.64,0,0,0,.17-1.69l-2.08-4.23a1.65,1.65,0,0,1,.1-1.61,1.62,1.62,0,0,1,.31-.33,28.25,28.25,0,0,0,7-8.7,1.56,1.56,0,0,1,1.51-.85,1.35,1.35,0,0,1,.28,0l5.48,1.34a1.6,1.6,0,0,0,1.9-1l.06-.15,2.3-6.35A1.63,1.63,0,0,0,1369.86,891.69Zm-21.56,2.1a15.28,15.28,0,0,1-4.09,5.68,10.33,10.33,0,0,1-1.19.88,17.6,17.6,0,0,1-5.46,2.29,15.2,15.2,0,0,1-18.3-17.5,18.8,18.8,0,0,1,.91-3.39,14.81,14.81,0,0,1,5-6.29l.64-.39C1338.83,867.47,1353.43,879.42,1348.3,893.79Z"/><path class="cls-3" d="M1108.24,843.38l-10-1.78a2.26,2.26,0,0,1-1.75-1.58c-.3-1-.66-2.08-1-3.1a38.84,38.84,0,0,0-2.58-5.44A2.24,2.24,0,0,1,1093,829l6.54-8.41a2.2,2.2,0,0,0-.25-3l-7.15-6.62a2.15,2.15,0,0,0-2.87-.05l-7.41,6.44a2.18,2.18,0,0,1-2.6.21,39.22,39.22,0,0,0-11.51-4.68,2.25,2.25,0,0,1-1.71-2.14l-.1-6a2.28,2.28,0,0,0-2-2.21l-9.65-.85a2.84,2.84,0,0,0-.58,0,2.2,2.2,0,0,0-1.79,1.8l-1.33,7.49-.32,1.83a38,38,0,0,0-5.27,1.61,39.62,39.62,0,0,0-6.59,3.26,2.18,2.18,0,0,1-2.5-.13l-6.77-5.27a2.24,2.24,0,0,0-3,.25l-5.07,5.46-1.44,1.57a2.28,2.28,0,0,0-.06,3l5.38,6.2a2.16,2.16,0,0,1,.26,2.54,39.5,39.5,0,0,0-3.36,7.66c-.09.23-.15.44-.22.67a1,1,0,0,1-.08.22,2.22,2.22,0,0,1-2,1.38l-9.7.19a1.16,1.16,0,0,0-.32,0,2.27,2.27,0,0,0-1.87,2l-.85,9.61a2.24,2.24,0,0,0,1.84,2.41l10.48,1.85a2.17,2.17,0,0,1,1.76,1.71,39.56,39.56,0,0,0,1.74,5.8c.39,1,.82,2,1.29,3a2.28,2.28,0,0,1-.26,2.39l-6.29,8.1a2.19,2.19,0,0,0,.24,2.94l7.09,6.54a2.29,2.29,0,0,0,3.05.06l5.86-5.1a2.27,2.27,0,0,1,2.78-.15,39.28,39.28,0,0,0,10.82,5.44,2.22,2.22,0,0,1,1.57,2.1l.17,8.74a2.29,2.29,0,0,0,2.09,2.24l9.57.87a2.23,2.23,0,0,0,2.38-1.82l.08-.44,1.55-8.71a2.26,2.26,0,0,1,1.81-1.83h0a38.87,38.87,0,0,0,6.66-1.9c1.17-.45,2.3-1,3.41-1.5a2.22,2.22,0,0,1,2.37.22l6.88,5.36a2.28,2.28,0,0,0,3.08-.25l6.52-7a2.41,2.41,0,0,0,.42-.67,2.28,2.28,0,0,0-.37-2.34l-4.31-4.94a2.27,2.27,0,0,1-.43-2.19,3,3,0,0,1,.29-.56,39.21,39.21,0,0,0,6.27-14.16,2.17,2.17,0,0,1,1.72-1.69,2.44,2.44,0,0,1,.39,0l7.85-.14a2.23,2.23,0,0,0,2.18-2l0-.23.85-9.36A2.28,2.28,0,0,0,1108.24,843.38ZM1080,853.89a21.56,21.56,0,0,1-3.49,9.08,15.35,15.35,0,0,1-1.28,1.61,24.26,24.26,0,0,1-6.53,5,21.13,21.13,0,0,1-30.82-17,26.53,26.53,0,0,1,0-4.88,20.55,20.55,0,0,1,4.56-10.25l.71-.76C1057.92,821.87,1081.81,832.75,1080,853.89Z"/><path class="cls-13" d="M1802.41,946.43H600.22a85.7,85.7,0,1,1,0-171.39H1802.41a85.7,85.7,0,1,1,0,171.39ZM600.22,782.4a78.34,78.34,0,1,0,0,156.67H1802.41a78.34,78.34,0,1,0,0-156.67Z"/><rect class="cls-9" x="711.23" y="548.06" width="118.88" height="98.02" transform="translate(1541.34 1194.15) rotate(180)"/><rect class="cls-4" x="770.67" y="548.06" width="118.88" height="98.02" transform="translate(1660.22 1194.15) rotate(180)"/><polygon class="cls-10" points="711.3 621.23 730.14 621.23 728.48 615.92 730.14 612.14 711.3 612.14 711.3 621.23"/><polygon class="cls-11" points="770.67 578.4 789.51 578.4 787.85 573.1 789.51 569.31 770.67 569.31 770.67 578.4"/><polygon class="cls-10" points="770.67 569.31 751.84 569.31 753.49 574.61 751.84 578.4 770.67 578.4 770.67 569.31"/><polygon class="cls-11" points="889.55 622.28 870.72 622.28 872.37 627.58 870.72 631.37 889.55 631.37 889.55 622.28"/><rect class="cls-3" x="847.56" y="554.71" width="34.21" height="13.31"/><path class="cls-10" d="M833.47,641.91c2.89-1.87,9.43-6,9.72-5a4.27,4.27,0,0,1-1,3.09c3.91-1.29,7.86-2.09,17,0a6.91,6.91,0,0,1,4.44,3.17c.89,1.51,1.17,3.35-1.25,4.73-4.83,2.75-3.4,1-10.12,5.07s-14.81,4.8-19.49,1.61l-6.4-1.32L826,642.69S829.72,642.39,833.47,641.91Z"/><path class="cls-11" d="M702.73,536.44c-17.63,11-35.89-3.93-35.89-3.93s7-17.91,2.63-41.52c-.18-1,30.75,11.79,31.69,12h0l0,.22.06.44c.48,4.17.82,8.3,1,12.16C703,527.33,702.73,536.44,702.73,536.44Z"/><path class="cls-10" d="M702.3,515.8c-14-1.27-24.84-9.15-28.43-13.59-1.09-1.33,26.46.71,27.29.77h0l0,.22c0,.11,0,.26.06.44C701.74,507.81,702.08,511.94,702.3,515.8Z"/><path class="cls-11" d="M706.92,501s-30.33,13.4-38.38-5.61-17.41-30.09,1.62-39.46,25.88-3.71,30.12,2S714.6,497,706.92,501Z"/><path class="cls-7" d="M670.63,500.61c-.38.36-6.81,3.73-24.57-19.6a22.81,22.81,0,0,1-2.53-20.76c3.28-8.62,18.92-17.84,32.36-23.1a27.23,27.23,0,0,1,16.92-.78,10.53,10.53,0,0,1,7.39,13.06c-2.54,8.9-8.84,14.36-16.82,14.12-5.35-.16-5,10.75-4.91,13.36s-.09,4.82-6.82,3.74c-5.76-.93-2.51,6.69-.57,10.11a10.12,10.12,0,0,1,1.37,5.55A6.23,6.23,0,0,1,670.63,500.61Z"/><path class="cls-13" d="M624.22,1007.11H604.67c-4.09,0-8.65-4.1-9.79-11.61s-9.56-11.62-11.38-17.77,7.51-14.8,7.51-14.8l1.56-2,1.63-2.09,15.48,3.64s.38,3.69.62,8.39a106.8,106.8,0,0,1,.07,10.74c-.46,8.2,2.29,17,9.58,18.63S624.22,1007.11,624.22,1007.11Z"/><path class="cls-13" d="M760.29,1007.11H708.48a4.51,4.51,0,0,1-1.1-.32c-3.46-1.73-2.38-15-2-19.07.08-.75.14-1.2.14-1.2s18.21-14.57,20.72-3.41q.12.52.27,1h0c3.16,10.44,17.3,15.18,25.47,16.5C758.26,1001.66,759.87,1005.29,760.29,1007.11Z"/><path class="cls-14" d="M749.85,708.33s-2.77,34.52-6,76c-4.42,56.37-9.74,125.61-10.26,138.72-.91,22.78-4.56,59.22-4.56,59.22s-8.65,8.65-26,5c0,0-15.43-52-19.83-107l-.21-2.72c-4.1-56-10.47-174-10.47-174Z"/><path class="cls-7" d="M742.16,703.55c-7.3.44-84.36-2.47-84.38-6.78-.07-15-3.2-39.2-7.11-68.63q-1.06-8.22-1.69-16.3a248.15,248.15,0,0,1-.09-39.68c2-22.64,7.83-37.18,17.64-45.69,0,0,9.23.76,17.73,2,9.63,1.45,13.19.84,19.81-1l11.76,10.13c7,6.56,12.68,13.41,14.94,22.88C730.77,560.51,742.81,703.5,742.16,703.55Z"/><path class="cls-13" d="M661.67,600s8.11,25.69,35.18,38.14,10.89-23.65,10.89-23.65Z"/><path class="cls-14" d="M730.77,560.51l-21,4.89-29,78.45C676.6,655.12,667,662.07,655,662.07l0,1.87,1.43,37.39,93.34,8.48S750.17,663,748.5,648C746,625.85,730.77,560.51,730.77,560.51Z"/><path class="cls-7" d="M831.71,647.86c.66-6.13-2.48-7.28-2.48-7.28S767.19,626.84,762,625s-48.84-50.88-48.84-50.88S696.46,553.78,682,557.57c-12.53,3.29-17.75,12.76-19.75,21.9-2.39,10.89-9.89,14.36-.62,20.55,20.81,13.9,74.64,49.09,84.58,52.43,22.12,7.42,82.46,3.71,82.46,3.71A19.34,19.34,0,0,0,831.71,647.86Z"/><path class="cls-14" d="M687.91,542.68c-4.9-4.55-21.38-16.21-21.38-16.21a12.47,12.47,0,0,1,1.63-2.08,12.89,12.89,0,0,1,2.1-1.64c2.09-.44,18.33,11.77,23.74,16.59,6.52,5.8,24.59,24,24.59,24l-8.87,2.06S693.68,548,687.91,542.68Z"/><path class="cls-4" d="M708.21,456.12s-12.09,6.81-16.55,7.95l-21.08,5.3-28.3,10.4s-9.6-20.66,2.24-36.86h0c.29-.4.6-.81.93-1.21A38.77,38.77,0,0,1,660,431C693.35,416,707.84,454.88,708.21,456.12Z"/><path class="cls-9" d="M691.94,463.38l-5.39,1.73c-5.34-4.93-24.87-21.86-42.24-21.77a3.47,3.47,0,0,1,.21-.43h0c.22-.4.43-.62.75-1.22h.18C667.93,443,687.38,459,691.94,463.38Z"/><path class="cls-4" d="M670.58,469.37s-3,4.93-3.25,9.2-18.78,10.13-20.47,8.24a58.76,58.76,0,0,1-4.58-7Z"/><path class="cls-9" d="M670.58,469.37s35.08-5.63,49.54-16.91a1.52,1.52,0,0,0-.82-2.72,69.75,69.75,0,0,0-13.5.89S695.15,463.27,670.58,469.37Z"/><path class="cls-15" d="M739.54,706s1.79,21.54-8.17,62c-7.31,29.66-48.15,112.27-48.15,112.27l-.21-2.72c-4.1-56-10.47-174-10.47-174Z"/><path class="cls-14" d="M739.54,706s-52.2,131.42-85,190.18-43,75.15-43,75.15-18.79-7.52-20.5-12.64c0,0,12.54-113.43,34.5-141.08,12.41-15.62,27-62.51,27.67-78.91s2.51-55.67,2.51-55.67Z"/><rect class="cls-15" x="920.24" y="642.71" width="160.44" height="132.29" transform="translate(2000.92 1417.72) rotate(180)"/><rect class="cls-14" x="1000.46" y="642.71" width="160.44" height="132.29" transform="translate(2161.36 1417.72) rotate(180)"/><polygon class="cls-13" points="920.33 741.45 945.76 741.45 943.52 734.3 945.76 729.19 920.33 729.19 920.33 741.45"/><polygon class="cls-7" points="1000.46 683.65 1025.88 683.65 1023.64 676.5 1025.88 671.39 1000.46 671.39 1000.46 683.65"/><polygon class="cls-13" points="1000.46 671.39 975.04 671.39 977.28 678.54 975.04 683.65 1000.46 683.65 1000.46 671.39"/><polygon class="cls-7" points="1160.9 742.87 1135.48 742.87 1137.72 750.03 1135.48 755.14 1160.9 755.14 1160.9 742.87"/><rect class="cls-3" x="1104.22" y="651.68" width="46.17" height="17.96"/><g id="P297LW"><path class="cls-11" d="M1443.48,557.85s-7.6,43.26-15.92,88.45c-9,49.12-18.92,100.53-20.78,101.17-3.59,1.24-3.3-6.58-5.76-12.55-2-4.79-8-45.87-6-71.48.48-6.25,2.09-83.33,12.78-92.43S1443.48,557.85,1443.48,557.85Z"/><path class="cls-11" d="M1398.68,723.45a25.29,25.29,0,0,1-.83,14c-2.69,6.93-3.26,8.91,1.71,12.8s10.36,9.36,14.09,7.74,1.42-33.35,1.42-33.35Z"/><path class="cls-13" d="M1409,1007.11c4.62-2.82,2-23.83,2-23.83s-21.51-17.21-24.46-4-20.43,19.09-30.38,20.7c-6.87,1.12-9,4.92-9.65,7.17Z"/><path class="cls-13" d="M1504.52,1007.11c4.62-2.82,2-23.83,2-23.83s-21.5-17.21-24.46-4-20.43,19.09-30.38,20.7c-6.87,1.12-9,4.92-9.65,7.17Z"/><path class="cls-14" d="M1474.64,763.18c-7.66,32.34-17.3,69.27-21.07,90.1-.44,2.41-.79,4.61-1.06,6.55s-.44,3.65-.52,5.06c-2,39-32.82,128.17-38.34,130.25-8.53,3.22-22-3.62-29-5.86a6,6,0,0,1-4.22-6.85c15.26-70.19,24.67-170.63,26.71-230.47,1-30.13,2.4-51.57,2.4-51.57s75.2-20.06,75.64,5.32C1485.36,715.54,1480.6,738,1474.64,763.18Z"/><path class="cls-15" d="M1474.64,763.18c-7.66,32.34-17.3,69.27-21.07,90.1-.44,2.41-2.74,22.87-3,24.81L1437.4,728.54l18.66,1.72Z"/><path class="cls-14" d="M1445,714.41l26.53,277.16S1491.2,998,1509,993c0,0,10.31-151.54,9.34-188.58s8.35-99.11-2.13-106S1445,714.41,1445,714.41Z"/><path class="cls-7" d="M1515.64,640.31c.29,3.16,1.49,62.24,1.58,64.46.09,2.45-6.59,7.32-30.19,10.82a221,221,0,0,1-29.92,2.25c-29.42.33-40.67-12-40.67-12-2,0,2.24-14.35,2.93-107.74a4.41,4.41,0,0,1-1.54-.09c-10.43-4.05-20.14-12.52-20.14-12.52s11.82-32.84,23-49.56c2.73-4.08,10.06-7.28,19.84-9.37,2.56-.55,5.31-1,8.17-1.42a166.12,166.12,0,0,1,44.34.28c2.6.37,5.16.81,7.66,1.32,11,2.24,21,5.83,28,11,10.39,7.55,18.12,46.2,18.12,46.2S1537.06,595,1515,600.39C1513.88,622.64,1514.34,625.66,1515.64,640.31Z"/><path class="cls-14" d="M1409.55,700.39l9-111.89a12,12,0,0,1,12.5-11l61.18,2.4a9.76,9.76,0,0,1,9.37,9.24c.75,14.69,3.56,43.24,14.06,51.2l5.55,81-68.38,61.91s-7.77-45.37-18.45-58C1428.38,718.18,1409.55,700.39,1409.55,700.39Z"/><path class="cls-14" d="M1500.69,526.7l-7.39,57.17-7.67-1.21,7.4-57.28C1495.63,525.75,1498.19,526.19,1500.69,526.7Z"/><path class="cls-14" d="M1448.69,525.1l-9.47,51.3-.79,4.3-.85-.2-6.75-1.51,9.69-52.47C1443.08,526,1445.83,525.49,1448.69,525.1Z"/><path class="cls-11" d="M1546.85,644.85s-4.59,13.95-63.64,33.26c0,0-.68-15.77,2.91-17.88,11.1-6.52,37.55-26,38.46-29.38.6-2.28-5.42-19.45-13-36.72,14-1.56,23-2.81,33.33-8.35C1548.72,612.94,1554,632,1546.85,644.85Z"/><path class="cls-11" d="M1476.48,661s-4.92-3.77-8.71-4.33-10.16-3-9.12-.73,8,5.77,8,5.77Z"/><path class="cls-13" d="M1467,685.87l-19.24,2.35a4.4,4.4,0,0,1-4.75-3.1l-13.17-43.66a4.4,4.4,0,0,1,3.69-5.64l19.24-2.35a4.4,4.4,0,0,1,4.75,3.1l13.17,43.66A4.4,4.4,0,0,1,1467,685.87Z"/><path class="cls-13" d="M1460.22,686.71,1441,689.06a4.42,4.42,0,0,1-4.75-3.11l-13.16-43.66a4.4,4.4,0,0,1,3.68-5.64L1446,634.3a4.41,4.41,0,0,1,4.75,3.1l13.16,43.66A4.41,4.41,0,0,1,1460.22,686.71Z"/><path class="cls-13" d="M1446.61,642.7h0a1.32,1.32,0,0,1-1.35-.86l-12.89-38.31a.81.81,0,0,1,.68-1.12h0a1.34,1.34,0,0,1,1.36.87l12.89,38.31A.81.81,0,0,1,1446.61,642.7Z"/><path class="cls-11" d="M1486.12,660.23s-3.42,2.12-5.86,1.48c-2-.53-3.78-.72-6.1-2.3s-7.88.54-9.48,1.6c-4.49,3-19.64,2.87-19.64,5.87s6.59,11.4,14.57,13.89,23.6-2.66,23.6-2.66Z"/><path class="cls-11" d="M1486.31,524c.33,8.89-7.55,13.22-19.36,11.53s-12-10.85-12-10.85l.29-8.87.34-10.49.3-9.37,28.59,3.87a33.89,33.89,0,0,0,0,4.53h0C1484.73,510,1485.54,519.05,1486.31,524Z"/><path class="cls-10" d="M1484.47,504.36h0c-.27.38-6.79,9.29-29.26,11.45l.34-10.49,28.92-1Z"/><path class="cls-11" d="M1450,510.28s35.17,7.11,39.25-14.86,11.38-35.85-10.9-41.32-28.22,2.11-31.36,9.11S1441,507.87,1450,510.28Z"/><path class="cls-13" d="M1487.67,500.3s12.23,2.75,13.39-19.5c.45-8.58,2.58-38.67-21.91-37.64s-35.64,15.35-37.87,17.86c-16.71,18.86,24,4.83,29.37,9.21s.25,11.6,6.44,14.17,11.08,2.58,10.05,8.25S1487.67,500.3,1487.67,500.3Z"/><path class="cls-14" d="M1438,461.46s13.1,4.56,17.69,4.89l21.69,1.5,29.69,5.23s5.8-22-8.72-35.88h0c-.36-.35-.74-.69-1.13-1a38.77,38.77,0,0,0-16.19-8C1445.53,419.29,1438.16,460.17,1438,461.46Z"/><path class="cls-15" d="M1455.31,465.73l5.61.75c4.38-5.8,20.61-25.92,37.73-28.9a3.69,3.69,0,0,0-.29-.38h0c-.29-.36-.53-.54-1-1.07l-.17,0C1475.33,441.4,1459,460.57,1455.31,465.73Z"/><path class="cls-14" d="M1477.39,467.85s3.83,4.32,4.82,8.47,20.28,6.65,21.61,4.49a57.79,57.79,0,0,0,3.26-7.73Z"/><path class="cls-15" d="M1477.39,467.85s-35.52.66-51.75-7.89a1.52,1.52,0,0,1,.33-2.82,69.24,69.24,0,0,1,13.44-1.51S1452.13,466.19,1477.39,467.85Z"/></g><polygon class="cls-12" points="74.57 425.22 22.81 425.22 22.81 1007.11 110.58 1007.11 110.58 720.11 74.57 572.67 74.57 425.22"/><rect class="cls-16" x="74.57" y="425.22" width="286.96" height="147.45"/><rect class="cls-16" x="110.58" y="720.11" width="286.96" height="287"/><polygon class="cls-3" points="397.55 720.11 110.58 720.11 74.57 572.67 361.54 572.67 397.55 720.11"/><polygon class="cls-2" points="115.32 601.95 107.82 601.95 104.95 591.27 112.45 591.27 115.32 601.95"/><polygon class="cls-2" points="132.39 601.95 124.89 601.95 122.02 591.27 129.52 591.27 132.39 601.95"/><polygon class="cls-2" points="149.46 601.95 141.96 601.95 139.09 591.27 146.59 591.27 149.46 601.95"/><polygon class="cls-2" points="166.53 601.95 159.02 601.95 156.15 591.27 163.66 591.27 166.53 601.95"/><polygon class="cls-2" points="183.59 601.95 176.09 601.95 173.22 591.27 180.72 591.27 183.59 601.95"/><polygon class="cls-2" points="200.66 601.95 193.16 601.95 190.29 591.27 197.79 591.27 200.66 601.95"/><polygon class="cls-2" points="120.68 621.9 113.17 621.9 110.31 611.21 117.81 611.21 120.68 621.9"/><polygon class="cls-2" points="137.75 621.9 130.24 621.9 127.37 611.21 134.88 611.21 137.75 621.9"/><polygon class="cls-2" points="154.81 621.9 147.31 621.9 144.44 611.21 151.94 611.21 154.81 621.9"/><polygon class="cls-2" points="171.88 621.9 164.38 621.9 161.51 611.21 169.01 611.21 171.88 621.9"/><polygon class="cls-2" points="188.95 621.9 181.45 621.9 178.58 611.21 186.08 611.21 188.95 621.9"/><polygon class="cls-2" points="206.02 621.9 198.52 621.9 195.65 611.21 203.15 611.21 206.02 621.9"/><polygon class="cls-2" points="126.23 642.56 118.72 642.56 115.85 631.87 123.36 631.87 126.23 642.56"/><polygon class="cls-2" points="143.29 642.56 135.79 642.56 132.92 631.87 140.43 631.87 143.29 642.56"/><polygon class="cls-2" points="160.36 642.56 152.86 642.56 149.99 631.87 157.49 631.87 160.36 642.56"/><polygon class="cls-2" points="177.43 642.56 169.93 642.56 167.06 631.87 174.56 631.87 177.43 642.56"/><polygon class="cls-2" points="194.5 642.56 187 642.56 184.13 631.87 191.63 631.87 194.5 642.56"/><polygon class="cls-2" points="211.57 642.56 204.06 642.56 201.2 631.87 208.7 631.87 211.57 642.56"/><polygon class="cls-2" points="131.58 662.5 124.08 662.5 121.21 651.82 128.71 651.82 131.58 662.5"/><polygon class="cls-2" points="148.65 662.5 141.15 662.5 138.28 651.82 145.78 651.82 148.65 662.5"/><polygon class="cls-2" points="165.72 662.5 158.22 662.5 155.35 651.82 162.85 651.82 165.72 662.5"/><polygon class="cls-2" points="182.79 662.5 175.28 662.5 172.42 651.82 179.92 651.82 182.79 662.5"/><polygon class="cls-2" points="199.86 662.5 192.35 662.5 189.48 651.82 196.99 651.82 199.86 662.5"/><polygon class="cls-2" points="216.93 662.5 209.42 662.5 206.55 651.82 214.06 651.82 216.93 662.5"/><polygon class="cls-2" points="234.11 601.95 226.6 601.95 223.74 591.27 231.24 591.27 234.11 601.95"/><polygon class="cls-2" points="251.18 601.95 243.67 601.95 240.8 591.27 248.31 591.27 251.18 601.95"/><polygon class="cls-2" points="268.24 601.95 260.74 601.95 257.87 591.27 265.37 591.27 268.24 601.95"/><polygon class="cls-2" points="285.31 601.95 277.81 601.95 274.94 591.27 282.44 591.27 285.31 601.95"/><polygon class="cls-2" points="302.38 601.95 294.88 601.95 292.01 591.27 299.51 591.27 302.38 601.95"/><polygon class="cls-2" points="319.45 601.95 311.95 601.95 309.08 591.27 316.58 591.27 319.45 601.95"/><polygon class="cls-2" points="239.46 621.9 231.96 621.9 229.09 611.21 236.59 611.21 239.46 621.9"/><polygon class="cls-2" points="256.53 621.9 249.03 621.9 246.16 611.21 253.66 611.21 256.53 621.9"/><polygon class="cls-2" points="273.6 621.9 266.1 621.9 263.23 611.21 270.73 611.21 273.6 621.9"/><polygon class="cls-2" points="290.67 621.9 283.17 621.9 280.3 611.21 287.8 611.21 290.67 621.9"/><polygon class="cls-2" points="307.74 621.9 300.24 621.9 297.37 611.21 304.87 611.21 307.74 621.9"/><polygon class="cls-2" points="324.81 621.9 317.3 621.9 314.43 611.21 321.94 611.21 324.81 621.9"/><polygon class="cls-2" points="245.01 642.56 237.51 642.56 234.64 631.87 242.14 631.87 245.01 642.56"/><polygon class="cls-2" points="262.08 642.56 254.58 642.56 251.71 631.87 259.21 631.87 262.08 642.56"/><polygon class="cls-2" points="279.15 642.56 271.65 642.56 268.78 631.87 276.28 631.87 279.15 642.56"/><polygon class="cls-2" points="296.22 642.56 288.71 642.56 285.85 631.87 293.35 631.87 296.22 642.56"/><polygon class="cls-2" points="313.29 642.56 305.78 642.56 302.91 631.87 310.42 631.87 313.29 642.56"/><polygon class="cls-2" points="330.35 642.56 322.85 642.56 319.98 631.87 327.49 631.87 330.35 642.56"/><polygon class="cls-2" points="250.37 662.5 242.87 662.5 240 651.82 247.5 651.82 250.37 662.5"/><polygon class="cls-2" points="267.44 662.5 259.94 662.5 257.06 651.82 264.57 651.82 267.44 662.5"/><polygon class="cls-2" points="284.51 662.5 277 662.5 274.13 651.82 281.64 651.82 284.51 662.5"/><polygon class="cls-2" points="301.57 662.5 294.07 662.5 291.2 651.82 298.7 651.82 301.57 662.5"/><polygon class="cls-2" points="318.64 662.5 311.14 662.5 308.27 651.82 315.77 651.82 318.64 662.5"/><polygon class="cls-2" points="335.71 662.5 328.21 662.5 325.34 651.82 332.84 651.82 335.71 662.5"/><rect class="cls-13" x="96.6" y="472.31" width="106.54" height="85.84"/><rect class="cls-7" x="195.65" y="472.31" width="7.61" height="85.84"/><path class="cls-12" d="M387.39,977.81H130.74V872.27H387.39Zm-255-1.68H385.71V873.94H132.42Z"/><path class="cls-6" d="M268.57,449.87c0,3.2-1.82,5.79-4.06,5.79s-4.07-2.59-4.07-5.79,1.82-5.79,4.07-5.79S268.57,446.67,268.57,449.87Z"/><path class="cls-4" d="M287.6,449.87c0,3.2-1.82,5.79-4.07,5.79s-4.07-2.59-4.07-5.79,1.82-5.79,4.07-5.79S287.6,446.67,287.6,449.87Z"/><path class="cls-17" d="M306.62,449.87c0,3.2-1.82,5.79-4.07,5.79s-4.07-2.59-4.07-5.79,1.83-5.79,4.07-5.79S306.62,446.67,306.62,449.87Z"/><path class="cls-6" d="M325.64,449.87c0,3.2-1.82,5.79-4.07,5.79s-4.06-2.59-4.06-5.79,1.82-5.79,4.06-5.79S325.64,446.67,325.64,449.87Z"/><path class="cls-4" d="M344.66,449.87c0,3.2-1.82,5.79-4.06,5.79s-4.07-2.59-4.07-5.79,1.82-5.79,4.07-5.79S344.66,446.67,344.66,449.87Z"/><path class="cls-12" d="M345.5,542.42H261.24V471.47H345.5Zm-82.58-1.68h80.9V473.15h-80.9Z"/><rect class="cls-18" x="125.8" y="481.48" width="13" height="2.4"/><rect class="cls-18" x="100.54" y="481.48" width="20.5" height="2.4"/><rect class="cls-18" x="100.54" y="487.89" width="31.01" height="2.4"/><rect class="cls-18" x="135.74" y="487.89" width="20.57" height="2.4"/><rect class="cls-18" x="141.62" y="481.48" width="22.46" height="2.4"/><rect class="cls-18" x="100.54" y="498.94" width="20.5" height="2.4"/><rect class="cls-18" x="100.54" y="505.35" width="31.01" height="2.4"/><rect class="cls-18" x="135.74" y="505.35" width="20.57" height="2.4"/><rect class="cls-18" x="125.8" y="498.94" width="13" height="2.4"/><rect class="cls-18" x="141.62" y="498.94" width="22.46" height="2.4"/><rect class="cls-18" x="100.54" y="518.18" width="20.5" height="2.4"/><rect class="cls-18" x="100.54" y="524.59" width="31.01" height="2.4"/><rect class="cls-18" x="135.74" y="524.59" width="20.57" height="2.4"/><rect class="cls-18" x="125.8" y="518.18" width="13" height="2.4"/><rect class="cls-18" x="141.62" y="518.18" width="22.46" height="2.4"/><rect class="cls-18" x="100.54" y="536.7" width="20.5" height="2.4"/><rect class="cls-18" x="100.54" y="543.11" width="31.01" height="2.4"/><rect class="cls-18" x="135.74" y="543.11" width="20.57" height="2.4"/><rect class="cls-18" x="125.8" y="536.7" width="13" height="2.4"/><rect class="cls-18" x="141.62" y="536.7" width="22.46" height="2.4"/><rect class="cls-9" x="1716.57" y="904.79" width="123.98" height="102.23" transform="translate(3557.12 1911.81) rotate(180)"/><rect class="cls-4" x="1778.56" y="904.79" width="123.98" height="102.23" transform="translate(3681.1 1911.81) rotate(180)"/><polygon class="cls-19" points="1716.65 981.09 1736.29 981.09 1734.56 975.57 1736.29 971.62 1716.65 971.62 1716.65 981.09"/><polygon class="cls-7" points="1778.56 936.43 1798.21 936.43 1796.48 930.9 1798.21 926.95 1778.56 926.95 1778.56 936.43"/><polygon class="cls-13" points="1778.56 926.95 1758.92 926.95 1760.65 932.48 1758.92 936.43 1778.56 936.43 1778.56 926.95"/><polygon class="cls-7" points="1902.54 982.19 1882.9 982.19 1884.63 987.72 1882.9 991.67 1902.54 991.67 1902.54 982.19"/><rect class="cls-3" x="1858.75" y="911.72" width="35.68" height="13.88"/><rect class="cls-9" x="1548.57" y="904.69" width="124.22" height="102.43" transform="translate(3221.37 1911.81) rotate(180)"/><rect class="cls-4" x="1610.69" y="904.69" width="124.22" height="102.43" transform="translate(3345.6 1911.81) rotate(180)"/><polygon class="cls-13" points="1548.65 981.14 1568.33 981.14 1566.6 975.61 1568.33 971.65 1548.65 971.65 1548.65 981.14"/><polygon class="cls-7" points="1610.69 936.39 1630.37 936.39 1628.64 930.85 1630.37 926.89 1610.69 926.89 1610.69 936.39"/><polygon class="cls-13" points="1610.69 926.89 1591 926.89 1592.74 932.43 1591 936.39 1610.69 936.39 1610.69 926.89"/><polygon class="cls-7" points="1734.91 982.25 1715.23 982.25 1716.96 987.78 1715.23 991.74 1734.91 991.74 1734.91 982.25"/><rect class="cls-3" x="1691.03" y="911.64" width="35.75" height="13.91"/><rect class="cls-13" x="1612.94" y="808.75" width="116.47" height="96.04" transform="translate(3342.36 1713.54) rotate(180)"/><rect class="cls-7" x="1671.18" y="808.75" width="116.47" height="96.04" transform="translate(3458.83 1713.54) rotate(180)"/><polygon class="cls-10" points="1613.01 880.43 1631.47 880.43 1629.84 875.24 1631.47 871.53 1613.01 871.53 1613.01 880.43"/><polygon class="cls-11" points="1671.18 838.47 1689.64 838.47 1688.01 833.28 1689.64 829.57 1671.18 829.57 1671.18 838.47"/><polygon class="cls-10" points="1671.18 829.57 1652.72 829.57 1654.35 834.76 1652.72 838.47 1671.18 838.47 1671.18 829.57"/><polygon class="cls-11" points="1787.66 881.46 1769.2 881.46 1770.83 886.66 1769.2 890.37 1787.66 890.37 1787.66 881.46"/><rect class="cls-3" x="1746.51" y="815.26" width="33.52" height="13.04"/><rect class="cls-12" x="211.57" y="499.25" width="5.18" height="5.18"/><rect class="cls-12" x="225.01" y="499.25" width="5.18" height="5.18"/><rect class="cls-12" x="238.45" y="499.25" width="5.18" height="5.18"/><rect class="cls-12" x="211.57" y="510.78" width="5.18" height="5.18"/><rect class="cls-12" x="225.01" y="510.78" width="5.18" height="5.18"/><rect class="cls-12" x="238.45" y="510.78" width="5.18" height="5.18"/><rect class="cls-12" x="211.57" y="523.56" width="5.18" height="5.18"/><rect class="cls-12" x="225.01" y="523.56" width="5.18" height="5.18"/><rect class="cls-2" x="238.45" y="523.56" width="5.18" height="5.18"/><path class="cls-13" d="M265.49,641.07l8.39-1.24c.92-.14,1.32-1.09.94-2.26l-8.16-24.84c-.49-1.49-2-2.69-3.2-2.52l-8.39,1.24c-.92.14-1.32,1.09-.94,2.26l8.17,24.84C262.78,640,264.31,641.24,265.49,641.07Z"/><path class="cls-20" d="M268.46,640.63l8.39-1.24c.92-.14,1.32-1.09.94-2.26l-8.17-24.84c-.48-1.49-2-2.69-3.19-2.52L258,611c-.92.14-1.32,1.09-.94,2.26l8.16,24.84C265.75,639.6,267.28,640.8,268.46,640.63Z"/><path class="cls-20" d="M260.37,615.55h0c.25,0,.37-.32.27-.64l-6.62-22c-.1-.31-.38-.54-.62-.5h0c-.24,0-.37.32-.27.63l6.63,22A.64.64,0,0,0,260.37,615.55Z"/><path class="cls-11" d="M258.16,532.14S252.1,521.84,247.3,518s-17.49-4.88-18-3.91c-1.52,3,5,7.38,6.39,10.16s.78,6.77,7.24,10c6.66,3.38,10.53,5.59,10.53,5.59Z"/><path class="cls-13" d="M253,530.74c3.11-4.85,4-5.1,4-5.1s51.46,20.53,56.38,22.25,78.34,6,78.34,6L414,602.63s-97.86-22.32-110.23-26.91c-20.42-7.58-53.19-37.27-53.19-37.27A16.08,16.08,0,0,1,253,530.74Z"/><path class="cls-13" d="M380.91,986.19s-1.12,18.06-4.48,22.31H324.8c.33-1.8,1.79-6.25,8.25-7.38,8.16-1.41,21.81-7.15,26.75-17.93C365,971.85,380.91,986.19,380.91,986.19Z"/><path class="cls-13" d="M472.53,983.67s3.21,23.46-1.21,23.87c-.58.05-19.63,0-27.09,0-9.28,0-24.11.06-24.11.06a2.42,2.42,0,0,1-2.19-3.65c1.07-1.82,3.11-3.75,7-4.5,8.13-1.57,21.68-7.54,26.43-18.4C456.37,969.61,472.53,983.67,472.53,983.67Z"/><path class="cls-15" d="M356.63,745.74s13,45.42,50.19,124.3S446.9,984.87,446.9,984.87l25.63-1.2s-2.41-93.89-20-133.7-21.15-148.74-21.15-148.74Z"/><path class="cls-14" d="M335.79,706.65s-1,70.34,11.14,156.7,8,123,8,123l29.15,1S401.54,901,396.54,857.72,420.4,709.4,420.4,709.4Z"/><path class="cls-11" d="M393.31,542.05l-13.75,10.19-19.87-4.19c.27-1.81,1.59-9.32,2.78-16.12l.21-1.19c1-5.79,1.91-10.76,1.91-10.76l18.56-9.25,6.91-3.45c0,.12-.53,6.42-.6,7.34C388.16,531,393.31,542.05,393.31,542.05Z"/><path class="cls-13" d="M361.08,536.92c.44-.19,27-8,29.92-7.08s4.59,6.54,4.59,6.54l-41,11.7S355.52,539.26,361.08,536.92Z"/><path class="cls-7" d="M432.68,715.34c-4.5,20.56-98.47-44-97.22-56.51.14-1.37.28-2.76.41-4.14,1.74-17.47,3.4-34.57,3.52-45.72a157.16,157.16,0,0,1,3.2-28.57c1.63-8.3,3.64-15.83,5.38-21.69A24,24,0,0,1,362,543.3a20.69,20.69,0,0,1,2.33-.81c11.32-3.29,27-7.35,31.22-6.11,11.5,3.39,20.05,23.63,26.1,49.43C433,634.12,435.62,701.94,432.68,715.34Z"/><path class="cls-10" d="M388.06,514.91c-4.07,7.8-19.26,14.54-25.59,17l.21-1.19c1-5.79,1.91-10.76,1.91-10.76l18.56-9.25C387.25,510.67,389.74,511.7,388.06,514.91Z"/><path class="cls-11" d="M355.57,518.89s33.48,10.45,39.66-10.5,14.67-33.71-6.44-41.27-27.65-.79-31.41,5.7S347,515.63,355.57,518.89Z"/><path class="cls-13" d="M358.69,470.8s2.14,24.38,7.18,23.32,9.61-1.84,8.87,5.51-7.73,15.83,7.81,17.13,37.87-38.77,33.61-46.35C403.84,448.52,340.89,444.1,358.69,470.8Z"/><path class="cls-13" d="M338.3,706.65c9.3,3.37-.16-9.24,0-11.87.72-11.56-3.81-26.18-2.43-40.09l56.84-34S406.2,706.11,338.3,706.65Z"/><path class="cls-14" d="M432.68,715.34c-24.26,45-28.13,62.14-28.13,62.14-21.11-2.41-57.3-43.93-68.78-55,0,0-1.56-51.09-.31-63.64l17.54-.5s31.71,8,39.93-2.87S397.59,591,397.59,591l24.1-5.21C433,634.12,439.2,703.27,432.68,715.34Z"/><path class="cls-11" d="M294.25,629.31s-6.93-1.35-8.74-2.83c-2.67-2.2-4.76-5.87-6.07-6.27-2.19-.68-7.57-7.44-8-7.92-.17-.19-1.63.52-1.27,1.63s1.16,3.54,1.45,4.41c1.27,3.84,1.21,5-3.39,3.54-.59-.19-11.21-3.56-12.3-1.16s3.31,14,8.85,16.51,19.21.24,20.2.53C293.32,640.18,294.25,629.31,294.25,629.31Z"/><path class="cls-7" d="M288.6,627.05S345,636.63,350,634.2c8-3.88-3.09-61.08-3.09-61.08s-.48-13,14.66-16c13.16-2.65,25.85,7.2,25.85,7.2s11.55,10.33,10.07,21.79c-3.27,25.4-8.35,77.06-25.34,85-21.91,10.21-85.32-28.32-85.32-28.32s-2.11-2.59-1.81-7.39C285.26,631.12,288.6,627.05,288.6,627.05Z"/><path class="cls-14" d="M402.26,590l-4.67,1s-9.87-42.74-43-42.94a23.93,23.93,0,0,1,7.5-4.78C374.19,546.56,395.3,557,402.26,590Z"/><path class="cls-11" d="M239.64,526.58s-9.14-5.6-9.57-3.2c-.21,1.2,3.85,4.48,5.49,5.88s5.8,4.15,5.8,4.15Z"/><rect class="cls-13" y="1007.11" width="1937.04" height="9.09" rx="2.92"/></g></g></svg>