<?xml version="1.0" standalone="no"?>
<!DOCTYPE svg PUBLIC "-//W3C//DTD SVG 20010904//EN"
 "http://www.w3.org/TR/2001/REC-SVG-20010904/DTD/svg10.dtd">
<svg version="1.0" xmlns="http://www.w3.org/2000/svg"
 width="500.000000pt" height="500.000000pt" viewBox="0 0 500.000000 500.000000"
 preserveAspectRatio="xMidYMid meet">

<g transform="translate(0.000000,500.000000) scale(0.100000,-0.100000)"
fill="#000000" stroke="none">
<path d="M2486 4354 c-39 -19 -95 -52 -125 -72 -64 -42 -271 -243 -271 -263 0
-8 37 -34 83 -58 l82 -44 74 76 c64 66 180 156 223 172 22 9 153 -83 231 -161
195 -194 295 -470 268 -745 -12 -125 -37 -207 -117 -380 -36 -78 -63 -144 -60
-146 2 -2 23 9 47 26 23 17 48 31 55 31 7 0 14 3 16 8 4 10 133 66 188 82 25
7 59 17 75 22 17 5 74 12 127 15 81 5 101 9 117 27 22 24 91 155 91 173 0 18
-115 26 -236 15 -60 -5 -111 -8 -113 -6 -2 2 1 48 7 102 34 296 -63 614 -260
852 -16 19 -32 40 -37 45 -10 14 -118 106 -144 124 -12 8 -25 19 -28 23 -9 14
-201 118 -216 118 -4 -1 -39 -17 -77 -36z"/>
<path d="M3458 3899 c-54 -3 -101 -9 -105 -12 -4 -4 3 -38 15 -75 12 -38 22
-76 22 -85 0 -9 5 -19 11 -23 6 -3 73 -7 148 -9 131 -2 227 -18 243 -40 16
-22 36 -115 43 -195 15 -202 -43 -421 -157 -592 -57 -84 -208 -238 -234 -238
-7 0 -14 -3 -16 -7 -6 -15 -103 -69 -163 -92 -33 -13 -69 -27 -80 -31 -11 -5
-54 -21 -95 -36 -78 -29 -105 -44 -78 -44 50 0 328 -103 328 -122 0 -4 4 -8
10 -8 16 0 111 -64 169 -115 62 -53 69 -54 195 -15 48 15 66 25 66 38 0 25
-131 156 -215 215 -33 24 -32 37 10 66 19 13 46 34 59 46 14 13 33 29 43 37
32 23 139 151 176 210 67 106 128 250 156 372 44 186 28 429 -42 631 -14 42
-59 74 -104 75 -13 0 -23 4 -23 8 0 4 -55 16 -122 25 -163 24 -149 23 -260 16z"/>
<path d="M1476 3890 c-82 -10 -216 -41 -270 -64 -37 -15 -60 -69 -93 -211 -18
-82 -26 -360 -11 -397 6 -15 13 -14 78 8 40 13 80 24 90 24 17 0 19 10 18 118
0 144 22 259 54 283 39 30 125 41 278 36 149 -4 198 -12 285 -41 77 -27 195
-87 221 -113 13 -13 28 -23 33 -23 18 0 139 -120 190 -188 63 -87 110 -181
156 -317 57 -168 53 -166 90 -40 51 174 105 277 216 407 27 31 49 66 49 77 0
27 -34 152 -49 180 -10 17 -16 19 -31 11 -30 -16 -147 -140 -187 -197 -20 -29
-40 -53 -44 -53 -3 0 -15 12 -25 28 -44 68 -105 134 -209 226 -63 55 -237 155
-323 184 -42 15 -79 29 -82 33 -7 8 -169 28 -270 33 -47 3 -120 1 -164 -4z"/>
<path d="M1854 3414 c-7 -36 0 -177 12 -268 l7 -48 -32 7 c-17 4 -102 7 -189
7 -158 1 -202 -5 -329 -43 -34 -11 -69 -19 -78 -19 -8 0 -15 -4 -15 -8 0 -5
-19 -15 -42 -23 -24 -7 -57 -23 -75 -34 -17 -11 -51 -31 -74 -45 -55 -32 -139
-102 -213 -176 -96 -96 -216 -289 -216 -348 0 -46 115 -228 204 -325 69 -74
148 -141 167 -141 5 0 22 29 38 64 16 35 34 66 40 70 22 14 10 33 -73 117 -95
96 -156 182 -156 220 0 44 94 169 192 254 74 65 74 65 133 102 87 55 146 78
315 123 53 15 297 15 344 1 17 -5 59 -17 93 -25 64 -16 175 -64 181 -78 2 -4
10 -8 17 -8 8 0 44 -14 80 -31 36 -18 67 -30 70 -28 2 3 -10 27 -27 54 -100
161 -156 337 -157 496 -1 41 -6 70 -13 77 -27 21 -166 92 -181 92 -11 0 -18
-13 -23 -36z"/>
<path d="M4102 2819 l-44 -82 76 -76 c109 -110 166 -189 166 -230 0 -20 -29
-76 -63 -121 -43 -57 -159 -170 -212 -207 -52 -36 -178 -101 -220 -113 -195
-56 -282 -67 -406 -51 -54 6 -111 16 -126 20 -16 5 -48 15 -73 22 -25 8 -65
24 -90 36 -25 13 -48 23 -52 23 -4 0 -39 16 -79 35 -103 50 -110 52 -96 21 7
-14 15 -26 20 -26 4 0 7 -4 7 -10 0 -5 13 -30 29 -56 61 -95 111 -273 124
-438 4 -50 10 -64 36 -88 16 -15 34 -28 39 -28 4 0 32 -11 60 -25 29 -14 56
-25 61 -25 24 0 26 126 5 299 l-7 53 49 -6 c140 -16 205 -18 298 -7 56 7 112
16 126 20 14 5 61 19 105 32 44 13 82 26 85 29 3 3 30 16 60 30 30 14 74 37
96 52 23 16 47 28 53 28 6 0 11 4 11 9 0 4 19 21 42 36 94 62 240 239 307 371
l41 81 -16 38 c-9 22 -31 63 -50 92 -19 29 -34 56 -34 58 0 10 -82 110 -139
170 -58 61 -123 115 -138 115 -4 0 -28 -37 -51 -81z"/>
<path d="M1480 2708 c-19 -5 -50 -12 -67 -15 -18 -3 -33 -9 -33 -14 0 -5 -7
-9 -15 -9 -38 0 -5 -52 90 -142 28 -27 69 -60 92 -76 50 -31 54 -51 16 -74
-46 -27 -169 -145 -221 -211 -103 -131 -191 -313 -217 -450 -8 -43 -18 -83
-21 -89 -14 -23 -4 -285 15 -383 21 -108 53 -204 73 -217 15 -9 92 -32 163
-48 28 -7 64 -16 81 -21 34 -10 286 -12 322 -3 28 8 28 15 -4 113 l-26 81
-114 0 c-113 0 -244 17 -244 32 0 5 -5 8 -11 8 -22 0 -38 29 -50 91 -16 88
-17 292 -1 354 7 28 18 68 24 90 5 22 16 54 23 70 41 97 61 136 94 185 46 71
206 229 257 255 21 11 42 24 45 28 10 13 130 67 150 67 10 0 19 3 19 8 0 4 19
13 43 20 58 17 150 53 161 63 5 4 -19 13 -53 20 -34 6 -64 16 -67 20 -3 5 -15
9 -26 9 -28 0 -200 76 -226 100 -12 11 -25 20 -29 20 -10 0 -53 33 -113 88
-49 44 -66 48 -130 30z"/>
<path d="M2216 2095 c-20 -14 -41 -25 -46 -25 -4 0 -10 -3 -12 -8 -6 -14 -132
-70 -203 -90 -112 -32 -125 -34 -220 -41 l-89 -6 -29 -40 c-38 -54 -79 -145
-73 -161 7 -18 155 -19 258 -3 54 8 72 8 78 -1 4 -7 5 -91 2 -188 -4 -175 -4
-178 28 -297 18 -66 35 -124 39 -130 4 -5 18 -37 31 -70 25 -62 38 -85 117
-198 44 -64 142 -167 208 -220 93 -73 227 -147 268 -147 40 0 212 100 290 169
67 59 177 182 177 198 0 9 -152 93 -167 93 -5 0 -21 -19 -38 -41 -32 -43 -166
-159 -184 -159 -6 0 -11 -3 -11 -7 0 -11 -50 -33 -72 -33 -20 0 -80 32 -119
64 -15 11 -39 30 -54 41 -38 27 -145 158 -187 230 -60 101 -78 142 -105 243
-21 80 -26 119 -26 222 0 185 24 280 131 510 41 91 53 120 48 120 -2 0 -20
-11 -40 -25z"/>
<path d="M2556 1952 c-34 -143 -112 -325 -163 -380 -13 -14 -23 -28 -23 -31 0
-4 -23 -34 -50 -66 -49 -57 -50 -61 -44 -105 7 -46 39 -138 54 -154 4 -4 16
-4 26 2 29 16 131 122 171 178 21 29 45 53 53 53 8 0 31 -21 50 -46 19 -26 42
-54 50 -63 8 -8 24 -26 35 -40 69 -85 313 -243 435 -280 25 -7 50 -17 55 -21
11 -7 34 -12 185 -33 175 -25 219 -22 420 27 114 27 147 42 155 69 3 13 10 32
15 43 42 93 72 348 56 479 l-8 57 -46 -7 c-26 -4 -49 -10 -52 -13 -3 -4 -23
-12 -46 -19 l-40 -12 -1 -122 c-1 -172 -26 -278 -67 -278 -12 0 -27 -5 -32
-10 -6 -6 -63 -16 -127 -22 -91 -9 -133 -9 -199 1 -85 13 -140 27 -170 42 -10
5 -27 9 -38 9 -11 0 -20 5 -20 10 0 6 -11 10 -25 10 -14 0 -25 5 -25 10 0 6
-8 10 -17 10 -17 0 -119 58 -157 90 -57 47 -156 147 -156 157 0 7 -4 13 -10
13 -20 0 -125 185 -150 265 -20 65 -72 195 -80 200 -4 3 -11 -7 -14 -23z"/>
</g>
</svg>
