<svg xmlns="http://www.w3.org/2000/svg" xmlns:xlink="http://www.w3.org/1999/xlink" width="588" zoomAndPan="magnify" viewBox="0 0 440.88 330.749987" height="441" preserveAspectRatio="xMidYMid meet" version="1.0"><defs><clipPath id="84e8404aad"><path d="M 0.105469 0 L 440.652344 0 L 440.652344 330.5 L 0.105469 330.5 Z M 0.105469 0 " clip-rule="nonzero"/></clipPath><clipPath id="43959151dd"><path d="M 2 33.050781 L 440.652344 33.050781 L 440.652344 294.601562 L 2 294.601562 Z M 2 33.050781 " clip-rule="nonzero"/></clipPath><clipPath id="ddf05b8720"><path d="M 111 33.050781 L 440.652344 33.050781 L 440.652344 294.601562 L 111 294.601562 Z M 111 33.050781 " clip-rule="nonzero"/></clipPath><clipPath id="8fc08614de"><path d="M 1 46 L 398 46 L 398 294.601562 L 1 294.601562 Z M 1 46 " clip-rule="nonzero"/></clipPath><clipPath id="98a9c4f417"><path d="M 15 46 L 440.652344 46 L 440.652344 294.601562 L 15 294.601562 Z M 15 46 " clip-rule="nonzero"/></clipPath></defs><g clip-path="url(#84e8404aad)"><path fill="#ffffff" d="M 0.105469 0 L 440.773438 0 L 440.773438 337.246094 L 0.105469 337.246094 Z M 0.105469 0 " fill-opacity="1" fill-rule="nonzero"/><path fill="#ffffff" d="M 0.105469 0 L 440.773438 0 L 440.773438 330.5 L 0.105469 330.5 Z M 0.105469 0 " fill-opacity="1" fill-rule="nonzero"/><path fill="#ffffff" d="M 0.105469 0 L 440.773438 0 L 440.773438 330.5 L 0.105469 330.5 Z M 0.105469 0 " fill-opacity="1" fill-rule="nonzero"/></g><g clip-path="url(#43959151dd)"><path fill="#ebaa71" d="M 421.28125 170.3125 L 402.71875 170.3125 L 402.625 170 C 399.410156 159.308594 392.808594 139.246094 384.75 125.019531 C 380.667969 117.8125 375.398438 114.089844 369.074219 113.957031 C 368.859375 113.949219 368.640625 113.949219 368.421875 113.949219 L 368.164062 113.949219 C 363.539062 114.003906 358.734375 115.589844 358.433594 119.007812 C 358.382812 119.574219 358.589844 120.195312 359.050781 120.855469 L 359.183594 121.046875 L 359.101562 121.261719 C 358.710938 122.304688 358.511719 123.378906 358.511719 124.464844 L 358.511719 126.332031 L 355.648438 129.828125 C 355.578125 129.945312 355.617188 130.097656 355.734375 130.167969 L 358.039062 131.589844 L 358.804688 136.476562 L 356.445312 134.691406 L 351.710938 136.445312 C 350.746094 136.800781 349.980469 137.554688 349.609375 138.515625 L 347.523438 143.894531 L 330.5 156.816406 C 327.304688 159.609375 325.160156 163.449219 324.457031 167.640625 L 323.585938 167.566406 L 323.585938 33.488281 L 111.636719 33.488281 L 111.636719 108.011719 L 105.5 108.992188 L 72.796875 90.171875 C 69.882812 88.496094 66.734375 87.300781 63.441406 86.625 L 61.257812 86.179688 L 61.542969 83.816406 L 59.800781 83.609375 L 59.800781 83.164062 L 60.238281 83.21875 L 60.238281 81.6875 L 64.582031 81.6875 C 65.632812 81.6875 66.527344 80.917969 66.691406 79.878906 L 67.351562 75.667969 L 69.308594 74.625 C 69.640625 74.445312 69.800781 74.0625 69.6875 73.703125 C 69.398438 72.78125 68.648438 71.039062 66.914062 69.660156 L 66.914062 68.253906 C 66.914062 66.242188 66.292969 64.378906 65.230469 62.839844 C 65.140625 62.957031 65.035156 63.074219 64.9375 63.191406 C 64.914062 63.15625 64.894531 63.121094 64.871094 63.089844 L 64.6875 62.820312 L 64.886719 62.566406 C 65.011719 62.40625 65.132812 62.246094 65.246094 62.089844 C 65.949219 61.113281 66.039062 59.890625 65.488281 58.820312 C 64.933594 57.730469 63.875 57.078125 62.65625 57.078125 L 53.914062 57.078125 C 51.457031 57.078125 49.796875 57.277344 48.527344 57.71875 C 47.019531 58.246094 46.96875 60.316406 46.96875 60.339844 L 46.957031 60.835938 L 46.460938 60.765625 C 46.449219 60.765625 46.414062 60.761719 46.355469 60.761719 C 45.863281 60.761719 44.246094 61.0625 44.246094 64.941406 C 44.246094 73.285156 48.972656 76.855469 49.019531 76.890625 L 49.199219 77.019531 L 49.199219 77.050781 C 48.933594 77.179688 48.761719 77.242188 48.761719 77.242188 L 48.761719 81.84375 L 49.199219 81.898438 L 49.199219 82.339844 L 47.574219 82.144531 L 47.300781 84.445312 L 46.964844 84.492188 C 42.609375 85.089844 36.523438 86.375 32.269531 89.089844 C 24.933594 93.765625 11.078125 116.019531 3.472656 128.871094 C 2.140625 131.117188 1.933594 133.796875 2.894531 136.226562 C 3.855469 138.65625 5.847656 140.464844 8.355469 141.1875 L 28.796875 147.074219 L 28.78125 147.421875 C 27.542969 170.800781 27.25 178.105469 27.257812 179.730469 C 27.75 179.691406 28.871094 179.59375 31.402344 179.335938 L 31.871094 179.289062 L 31.886719 179.757812 C 32.007812 183.363281 32.25 186.929688 32.488281 190.378906 C 32.972656 197.441406 33.429688 204.109375 32.707031 209.695312 C 32.375 212.25 17.902344 259.507812 16.273438 264.824219 L 19.054688 265.71875 L 18.878906 266.125 L 18.457031 265.988281 C 18.34375 266.25 18.230469 266.515625 18.105469 266.777344 C 17.496094 268.085938 16.25 269.503906 14.898438 271.070312 C 14.898438 271.070312 14.902344 271.070312 14.902344 271.070312 C 15.011719 271.148438 15.132812 271.230469 15.261719 271.320312 L 14.972656 271.65625 L 14.648438 271.433594 C 14.578125 271.382812 14.496094 271.355469 14.414062 271.355469 C 14.277344 271.355469 14.15625 271.421875 14.078125 271.527344 L 9.734375 277.695312 L 41.527344 294.03125 C 42.429688 292.042969 43.261719 287.988281 40.636719 286.300781 C 34.089844 282.097656 31.472656 277.226562 30.492188 274.695312 C 30.34375 274.3125 29.984375 274.066406 29.550781 274.066406 L 28.859375 274.082031 L 29.003906 273.753906 C 29.179688 273.679688 29.359375 273.632812 29.542969 273.628906 L 31.132812 270.0625 L 30.714844 269.929688 L 30.894531 269.523438 L 40.242188 272.53125 C 41.753906 267.746094 55.628906 223.796875 58.023438 211.171875 L 58.882812 211.152344 L 59.714844 214.613281 L 58.363281 274.195312 L 63.855469 274.195312 L 63.925781 274.550781 C 63.933594 274.578125 63.933594 274.605469 63.941406 274.636719 L 63.496094 274.636719 C 63.890625 276.589844 64.179688 278.554688 64.257812 280.644531 C 64.3125 282.089844 63.851562 283.921875 63.363281 285.933594 C 63.496094 285.949219 63.640625 285.96875 63.800781 285.988281 L 63.789062 286.035156 L 63.640625 286.414062 L 63.25 286.363281 C 63.042969 286.363281 62.871094 286.511719 62.839844 286.714844 L 61.789062 294.1875 L 97.523438 294.1875 C 97.421875 292.007812 96.3125 288.019531 93.207031 287.71875 C 85.46875 286.96875 80.914062 283.832031 78.890625 282.027344 C 78.65625 281.824219 78.410156 281.78125 78.238281 281.78125 C 78.074219 281.78125 77.910156 281.824219 77.765625 281.902344 L 77.15625 282.230469 L 77.136719 281.871094 C 77.257812 281.722656 77.398438 281.597656 77.558594 281.511719 L 77.1875 274.632812 L 76.75 274.632812 L 76.722656 274.195312 L 84.28125 274.195312 C 84.425781 268.859375 85.796875 215.789062 84.148438 206.839844 C 83.019531 200.734375 78.738281 183.8125 75.332031 170.613281 C 74.824219 164.246094 74.589844 156.867188 74.335938 149.050781 C 73.960938 137.425781 73.574219 125.40625 72.273438 114.734375 L 72.171875 113.902344 L 97.804688 127.4375 C 99.269531 128.207031 100.921875 128.617188 102.574219 128.617188 C 103.28125 128.617188 103.984375 128.542969 104.675781 128.398438 L 111.636719 126.933594 L 111.636719 190.582031 L 312.835938 190.582031 L 312.835938 212.546875 L 312.683594 212.675781 C 310.558594 214.511719 309.089844 217.039062 308.550781 219.789062 L 296.929688 279.152344 L 299.925781 279.152344 L 299.519531 279.824219 C 297.121094 283.746094 294.921875 286.042969 292.988281 286.652344 C 285.316406 289.078125 284.328125 292.953125 284.214844 294.1875 L 303.867188 294.1875 L 311.839844 289.242188 L 313.066406 294.1875 L 319.824219 294.1875 L 316.992188 279.152344 L 341.167969 279.152344 L 340.757812 279.824219 C 338.359375 283.746094 336.164062 286.042969 334.230469 286.652344 C 326.554688 289.078125 325.570312 292.953125 325.457031 294.1875 L 345.109375 294.1875 L 353.082031 289.242188 L 354.308594 294.1875 L 361.066406 294.1875 L 358.230469 279.152344 L 360.269531 279.152344 L 356.054688 254.460938 L 433.109375 254.460938 L 433.109375 294.1875 L 440.25 294.1875 L 440.25 189.304688 C 440.246094 178.832031 431.738281 170.3125 421.28125 170.3125 Z M 323.585938 172.183594 L 323.585938 171.230469 L 324.453125 171.128906 C 324.46875 171.1875 324.488281 171.246094 324.511719 171.304688 L 324.585938 171.730469 Z M 365.1875 144.289062 L 364.785156 144.324219 C 360.746094 144.667969 357.085938 145.347656 353.597656 146.402344 L 352.003906 146.882812 L 353.152344 145.675781 C 354.367188 144.402344 355.09375 142.109375 355.101562 142.085938 L 355.160156 141.898438 L 359.609375 139.84375 C 360.308594 139.523438 360.839844 138.917969 361.074219 138.191406 L 360.097656 137.457031 L 365.1875 137.457031 Z M 365.1875 144.289062 " fill-opacity="1" fill-rule="nonzero"/></g><path fill="#ebaa71" d="M 378.519531 123.996094 L 381.300781 150.65625 L 360.527344 154.320312 L 364.75 143.886719 L 364.75 137.894531 L 361.410156 137.894531 L 361.574219 138.019531 C 361.363281 139 360.703125 139.824219 359.792969 140.246094 L 355.519531 142.21875 C 355.519531 142.21875 354.773438 144.617188 353.46875 145.980469 C 352.894531 146.582031 346.929688 167.066406 342.097656 174.824219 C 342.097656 174.824219 326.464844 170.441406 324.105469 171.464844 C 324.074219 171.390625 324.050781 171.308594 324.023438 171.230469 C 323.84375 170.6875 323.757812 170.097656 323.796875 169.488281 C 323.839844 168.84375 323.917969 168.199219 324.023438 167.566406 C 324.742188 163.285156 326.914062 159.363281 330.210938 156.484375 L 347.160156 143.617188 L 349.199219 138.355469 C 349.617188 137.277344 350.472656 136.433594 351.554688 136.03125 L 356.519531 134.195312 L 358.199219 135.46875 L 357.632812 131.859375 L 355.5 130.542969 C 355.179688 130.34375 355.078125 129.921875 355.277344 129.597656 L 358.074219 126.175781 L 358.074219 124.464844 C 358.074219 123.28125 358.296875 122.15625 358.691406 121.109375 C 368.867188 121.507812 378.519531 123.996094 378.519531 123.996094 Z M 351.082031 198.160156 L 347.226562 199.105469 L 340.683594 196.984375 L 340.679688 196.984375 L 340.679688 199.863281 L 333.042969 200.398438 C 332.175781 200.457031 331.496094 201.175781 331.484375 202.050781 L 331.421875 207.121094 C 331.417969 207.222656 331.429688 207.320312 331.441406 207.421875 C 331.554688 208.4375 326.738281 215.988281 326.738281 215.988281 L 346.046875 218.332031 C 346.617188 218.457031 376.496094 210.851562 376.910156 209.835938 L 367.546875 184.492188 Z M 351.082031 198.160156 " fill-opacity="1" fill-rule="nonzero"/><g clip-path="url(#ddf05b8720)"><path fill="#ebd1ab" d="M 312.398438 228.730469 C 314.105469 227.257812 329.539062 207.351562 329.539062 207.351562 L 328.953125 198.847656 L 340.683594 196.984375 L 347.226562 199.105469 L 351.082031 198.160156 L 367.550781 184.492188 L 357.457031 155.78125 L 336.53125 169.871094 L 331.800781 169.871094 C 329.066406 169.871094 326.464844 170.441406 324.105469 171.464844 C 324.078125 171.476562 324.050781 171.492188 324.023438 171.503906 L 324.023438 171.230469 C 323.84375 170.6875 323.757812 170.097656 323.796875 169.488281 C 323.839844 168.84375 323.917969 168.199219 324.023438 167.566406 L 324.023438 33.050781 L 111.199219 33.050781 L 111.199219 107.636719 L 112.589844 107.414062 L 112.589844 127.183594 L 111.199219 127.476562 L 111.199219 191.023438 L 312.398438 191.023438 Z M 161.222656 97.941406 L 159.996094 102.964844 C 159.839844 103.601562 159.496094 104.175781 159.011719 104.617188 L 154.988281 108.253906 C 154.296875 108.878906 153.429688 109.277344 152.507812 109.398438 C 150.960938 109.601562 146.503906 110.035156 146.503906 110.035156 L 141.546875 111.710938 L 137.164062 106.421875 L 139.765625 103.066406 L 141.691406 102.554688 L 147.488281 96.347656 C 147.90625 95.929688 148.410156 95.613281 148.964844 95.410156 L 152.628906 94.066406 C 153.054688 93.910156 153.492188 94.261719 153.433594 94.710938 L 153.335938 95.445312 C 153.28125 95.855469 153.054688 96.222656 152.710938 96.453125 L 150.5 97.945312 L 149.359375 100.503906 L 160.0625 96.882812 C 160.734375 96.648438 161.390625 97.25 161.222656 97.941406 Z M 358.757812 279.59375 L 361.59375 294.628906 L 353.964844 294.628906 L 352.800781 289.933594 L 345.234375 294.628906 L 325.007812 294.628906 C 325.007812 294.628906 324.40625 289.300781 334.097656 286.238281 C 336.351562 285.523438 338.714844 282.320312 340.382812 279.59375 Z M 440.6875 189.304688 L 440.6875 254.902344 L 356.574219 254.902344 L 356.160156 252.457031 L 328.953125 252.457031 L 328.953125 212.386719 L 365.605469 212.386719 L 365.605469 210.417969 C 365.605469 208.980469 365.769531 207.582031 366.0625 206.234375 C 366.300781 205.144531 366.632812 204.085938 367.046875 203.070312 C 367.46875 202.035156 367.988281 201.054688 368.574219 200.117188 L 368.574219 171.601562 L 403.5625 171.601562 C 403.398438 171.050781 403.226562 170.476562 403.046875 169.875 L 421.285156 169.875 C 432 169.875 440.6875 178.574219 440.6875 189.304688 Z M 317.519531 279.59375 L 320.355469 294.628906 L 312.722656 294.628906 L 311.558594 289.933594 L 303.992188 294.628906 L 283.769531 294.628906 C 283.769531 294.628906 283.167969 289.300781 292.859375 286.238281 C 295.113281 285.523438 297.476562 282.320312 299.144531 279.59375 Z M 317.519531 279.59375 " fill-opacity="1" fill-rule="nonzero"/></g><g clip-path="url(#8fc08614de)"><path fill="#d87524" d="M 138.457031 67.109375 L 123.308594 67.109375 L 123.308594 46.988281 L 144.402344 46.988281 L 144.402344 61.304688 L 138.457031 61.304688 Z M 164.609375 84.625 L 164.609375 78.824219 L 170.554688 78.824219 L 170.554688 64.503906 L 149.460938 64.503906 L 149.460938 84.625 Z M 191.855469 66.648438 L 197.800781 66.648438 L 197.800781 52.332031 L 176.707031 52.332031 L 176.707031 72.453125 L 191.855469 72.453125 Z M 220.558594 85.125 L 214.964844 85.125 L 214.964844 95.527344 L 220.558594 95.527344 Z M 247.792969 74.722656 L 242.203125 74.722656 L 242.203125 95.527344 L 247.792969 95.527344 Z M 279.511719 85.125 L 273.917969 85.125 L 273.917969 95.527344 L 279.511719 95.527344 Z M 306.746094 51.53125 L 301.152344 51.53125 L 301.152344 95.527344 L 306.746094 95.527344 Z M 315.824219 155.476562 C 315.824219 171.1875 303.109375 183.921875 287.421875 183.921875 C 271.734375 183.921875 259.019531 171.1875 259.019531 155.476562 C 259.019531 139.769531 271.734375 127.035156 287.421875 127.035156 C 303.109375 127.035156 315.824219 139.769531 315.824219 155.476562 Z M 312.539062 155.476562 C 312.539062 141.585938 301.292969 130.328125 287.421875 130.328125 C 273.550781 130.328125 262.304688 141.585938 262.304688 155.476562 C 262.304688 169.367188 273.550781 180.628906 287.421875 180.628906 C 301.292969 180.628906 312.539062 169.367188 312.539062 155.476562 Z M 151.710938 180.628906 C 137.839844 180.628906 126.59375 169.367188 126.59375 155.476562 C 126.59375 141.585938 137.839844 130.328125 151.710938 130.328125 L 151.710938 127.035156 C 136.023438 127.035156 123.308594 139.769531 123.308594 155.476562 C 123.308594 171.1875 136.023438 183.921875 151.710938 183.921875 C 167.398438 183.921875 180.117188 171.1875 180.117188 155.476562 L 176.828125 155.476562 C 176.828125 169.367188 165.582031 180.628906 151.710938 180.628906 Z M 238.464844 134.238281 C 236.265625 132.273438 233.75 130.640625 230.984375 129.425781 C 229.742188 128.878906 228.441406 128.421875 227.105469 128.054688 L 226.230469 131.230469 C 238.183594 134.511719 246.164062 146.214844 244.457031 158.851562 C 242.59375 172.617188 229.941406 182.265625 216.195312 180.402344 C 202.449219 178.539062 192.816406 165.867188 194.679688 152.101562 C 196.386719 139.46875 207.1875 130.308594 219.582031 130.332031 L 219.582031 127.046875 C 205.566406 127.023438 193.351562 137.371094 191.421875 151.660156 C 189.316406 167.226562 200.210938 181.554688 215.757812 183.664062 C 231.300781 185.773438 245.609375 174.859375 247.714844 159.292969 C 249.03125 149.5625 245.269531 140.320312 238.464844 134.238281 Z M 219.738281 127.042969 C 220.273438 127.050781 220.8125 127.066406 221.351562 127.097656 C 220.8125 127.0625 220.273438 127.046875 219.738281 127.042969 Z M 219.582031 127.039062 L 219.582031 127.046875 C 219.632812 127.046875 219.6875 127.042969 219.738281 127.042969 C 219.6875 127.042969 219.632812 127.039062 219.582031 127.039062 Z M 224.25 127.441406 C 223.960938 127.390625 223.671875 127.332031 223.378906 127.289062 C 222.765625 127.207031 222.15625 127.152344 221.546875 127.109375 C 222.15625 127.148438 222.765625 127.207031 223.378906 127.292969 C 223.671875 127.332031 223.960938 127.390625 224.25 127.441406 Z M 40.875 285.933594 C 34.429688 281.792969 31.859375 277.011719 30.902344 274.539062 C 30.675781 273.953125 30.121094 273.621094 29.542969 273.628906 C 29.3125 273.632812 29.074219 273.691406 28.855469 273.820312 C 27.28125 274.746094 24.859375 275.984375 23.421875 275.78125 C 21.445312 275.507812 16.683594 272.308594 14.902344 271.070312 C 14.902344 271.070312 14.898438 271.070312 14.898438 271.070312 C 14.515625 270.808594 13.996094 270.898438 13.71875 271.273438 L 9.085938 277.855469 L 41.726562 294.628906 L 41.777344 294.527344 C 42.753906 292.617188 43.929688 287.894531 40.875 285.933594 Z M 93.246094 287.28125 C 85.625 286.542969 81.160156 283.464844 79.179688 281.703125 C 78.714844 281.285156 78.066406 281.242188 77.558594 281.515625 C 77.355469 281.625 77.171875 281.78125 77.035156 281.996094 C 76.054688 283.542969 74.460938 285.75 73.09375 286.226562 C 71.210938 286.886719 65.511719 286.21875 63.363281 285.933594 C 62.898438 285.875 62.476562 286.191406 62.40625 286.652344 L 61.28125 294.628906 L 97.96875 294.628906 L 97.96875 294.515625 C 97.96875 292.367188 96.859375 287.632812 93.246094 287.28125 Z M 143.402344 120.707031 L 111.199219 127.480469 L 104.765625 128.832031 C 102.335938 129.34375 99.800781 128.988281 97.601562 127.828125 L 72.710938 114.683594 C 74.894531 132.628906 80.117188 173.507812 80.117188 173.507812 C 80.117188 173.507812 78.878906 173.675781 76.785156 173.964844 C 72.398438 174.5625 65.578125 186.464844 57.152344 187.570312 C 47.773438 188.800781 36.714844 179.238281 31.449219 179.773438 C 28.625 180.0625 26.875 180.21875 26.847656 180.183594 C 26.667969 179.9375 27.453125 164.242188 28.34375 147.402344 L 8.234375 141.609375 C 2.699219 140.015625 0.160156 133.613281 3.097656 128.648438 C 10.859375 115.535156 24.652344 93.425781 32.035156 88.71875 C 36.367188 85.957031 42.527344 84.660156 46.90625 84.054688 L 47.195312 81.65625 L 48.761719 81.84375 L 60.238281 83.21875 L 62.03125 83.433594 L 61.742188 85.828125 L 63.53125 86.195312 C 66.863281 86.878906 70.066406 88.09375 73.015625 89.789062 L 105.582031 108.535156 L 111.199219 107.636719 L 139.765625 103.0625 L 139.769531 103.0625 L 141.550781 111.710938 Z M 55.847656 147.449219 L 45.769531 142.324219 L 48.398438 141.351562 L 51.007812 141.890625 C 51.414062 141.972656 51.835938 141.878906 52.164062 141.628906 L 52.753906 141.1875 C 53.113281 140.914062 53.058594 140.355469 52.648438 140.160156 L 49.128906 138.480469 C 48.597656 138.226562 48.015625 138.089844 47.425781 138.082031 L 38.941406 138.277344 L 35.65625 136.316406 L 31.394531 144.121094 L 36.972656 146.953125 C 36.972656 146.953125 40.402344 149.839844 41.628906 150.800781 C 42.359375 151.378906 43.25 151.71875 44.179688 151.773438 L 49.59375 152.109375 C 50.246094 152.148438 50.894531 151.992188 51.460938 151.65625 L 55.902344 149.019531 C 56.511719 148.65625 56.480469 147.765625 55.847656 147.449219 Z M 396.417969 178.628906 L 372.480469 144.832031 L 364.75 149.363281 L 364.75 143.886719 C 360.878906 144.214844 357.136719 144.875 353.46875 145.980469 C 352.894531 146.582031 352.214844 146.984375 351.445312 146.890625 C 350.953125 146.828125 341.363281 162.113281 336.53125 169.875 L 346.605469 169.875 C 344.9375 177.214844 350.027344 180.546875 350.027344 180.546875 L 351.082031 198.160156 L 364.332031 194.910156 L 367.046875 203.070312 C 369.941406 195.980469 376.890625 190.988281 385.011719 190.988281 L 397.324219 190.988281 C 398.027344 188.722656 397.511719 184.046875 396.417969 178.628906 Z M 327.695312 205.039062 C 327.695312 206.171875 328.484375 207.109375 329.539062 207.355469 C 329.710938 207.394531 329.886719 207.417969 330.070312 207.417969 L 331.441406 207.417969 C 331.429688 207.320312 331.417969 207.222656 331.421875 207.121094 L 331.484375 202.050781 C 331.496094 201.175781 332.175781 200.457031 333.046875 200.394531 L 340.683594 199.863281 L 340.683594 196.0625 L 327.695312 196.0625 Z M 327.695312 205.039062 " fill-opacity="1" fill-rule="nonzero"/></g><g clip-path="url(#98a9c4f417)"><path fill="#000000" d="M 144.402344 61.304688 L 138.457031 67.109375 L 138.457031 61.304688 Z M 170.554688 78.824219 L 164.609375 78.824219 L 164.609375 84.625 Z M 191.855469 72.453125 L 197.800781 66.648438 L 191.855469 66.648438 Z M 229.636719 72.246094 L 224.042969 72.246094 L 224.042969 95.527344 L 229.636719 95.527344 Z M 238.714844 60.855469 L 233.121094 60.855469 L 233.121094 95.527344 L 238.714844 95.527344 Z M 251.28125 95.523438 L 256.875 95.523438 L 256.875 46.988281 L 251.28125 46.988281 Z M 288.589844 67.296875 L 282.996094 67.296875 L 282.996094 95.527344 L 288.589844 95.527344 Z M 297.667969 55.902344 L 292.074219 55.902344 L 292.074219 95.527344 L 297.667969 95.527344 Z M 315.824219 46.988281 L 310.234375 46.988281 L 310.234375 95.523438 L 315.824219 95.523438 Z M 151.710938 127.035156 L 151.710938 130.328125 C 165.582031 130.328125 176.828125 141.585938 176.828125 155.476562 L 180.117188 155.476562 C 180.117188 139.769531 167.398438 127.035156 151.710938 127.035156 Z M 225.285156 127.617188 C 224.945312 127.546875 224.59375 127.496094 224.25 127.441406 C 223.960938 127.390625 223.671875 127.332031 223.378906 127.292969 C 222.765625 127.207031 222.15625 127.148438 221.546875 127.109375 C 221.484375 127.105469 221.417969 127.101562 221.351562 127.097656 C 220.757812 127.0625 220.167969 127.039062 219.582031 127.039062 L 219.582031 130.332031 C 220.6875 130.332031 221.808594 130.402344 222.9375 130.554688 C 224.066406 130.707031 225.164062 130.941406 226.230469 131.230469 L 227.105469 128.054688 C 226.910156 128 226.703125 127.960938 226.507812 127.910156 C 226.101562 127.808594 225.695312 127.703125 225.285156 127.617188 Z M 76.785156 173.964844 C 76.785156 173.964844 43.699219 178.527344 31.449219 179.773438 C 31.816406 190.789062 33.339844 201.394531 32.273438 209.640625 C 31.929688 212.285156 15.730469 265.113281 15.730469 265.113281 L 18.457031 265.992188 L 31.136719 270.066406 L 40.527344 273.085938 C 40.527344 273.085938 55.902344 224.726562 58.457031 211.257812 L 59.277344 214.660156 L 57.914062 274.636719 L 84.710938 274.636719 C 84.710938 274.636719 86.335938 216.296875 84.578125 206.761719 C 83.472656 200.765625 76.785156 173.964844 76.785156 173.964844 Z M 48.761719 77.246094 C 48.761719 77.246094 50.796875 76.515625 52.429688 74.414062 C 50.25 72.042969 50.113281 68.300781 51.558594 67.40625 C 52.460938 66.851562 53.738281 67.097656 54.828125 67.824219 L 54.828125 71.839844 L 57.558594 69.71875 L 57.558594 67.933594 C 61.226562 66.851562 63.648438 64.855469 65.230469 62.839844 C 65.359375 62.675781 65.484375 62.511719 65.601562 62.347656 C 67.316406 59.964844 65.585938 56.640625 62.65625 56.640625 L 53.914062 56.640625 C 51.285156 56.640625 49.640625 56.867188 48.382812 57.304688 C 46.554688 57.941406 46.53125 60.332031 46.53125 60.332031 C 46.53125 60.332031 43.808594 59.875 43.808594 64.945312 C 43.808594 73.636719 48.761719 77.246094 48.761719 77.246094 Z M 432.667969 254.902344 L 432.667969 294.628906 L 440.6875 294.628906 L 440.6875 254.902344 Z M 341.492188 210.757812 C 340.96875 211.019531 340.367188 211.09375 339.792969 210.964844 L 333.3125 209.515625 C 332.296875 209.289062 331.554688 208.4375 331.441406 207.417969 L 330.070312 207.417969 C 329.886719 207.417969 329.710938 207.394531 329.539062 207.355469 L 318.507812 209.40625 C 316.195312 209.839844 314.105469 210.875 312.398438 212.347656 C 310.234375 214.210938 308.695312 216.777344 308.121094 219.707031 L 296.394531 279.59375 L 360.789062 279.59375 L 356.574219 254.902344 L 352.367188 230.253906 L 363.117188 230.253906 C 363.960938 230.253906 364.789062 230.183594 365.605469 230.085938 L 365.605469 210.417969 C 365.605469 208.980469 365.769531 207.582031 366.0625 206.234375 L 347.539062 207.777344 C 345.378906 208.816406 342.785156 210.109375 341.492188 210.757812 Z M 385.132812 124.800781 C 380.550781 116.714844 374.785156 113.636719 369.089844 113.519531 C 368.835938 113.511719 368.582031 113.507812 368.324219 113.507812 C 368.269531 113.507812 368.210938 113.507812 368.15625 113.507812 L 368.160156 113.511719 C 363.515625 113.566406 358.328125 115.175781 357.996094 118.96875 C 357.929688 119.683594 358.195312 120.402344 358.691406 121.109375 C 360.542969 123.765625 365.617188 126.226562 368.46875 127.453125 C 369.542969 126.195312 371.246094 125.546875 372.339844 126.222656 C 373.738281 127.085938 373.484375 130.921875 371.054688 132.972656 L 372.480469 144.832031 L 376.542969 178.632812 L 405.546875 178.632812 C 405.546875 178.632812 404.648438 175.203125 403.046875 169.875 C 399.664062 158.640625 393.128906 138.925781 385.132812 124.800781 Z M 214.964844 110.421875 L 256.875 110.421875 L 256.875 103.851562 L 214.964844 103.851562 Z M 315.824219 103.851562 L 273.917969 103.851562 L 273.917969 110.421875 L 315.824219 110.421875 Z M 315.824219 103.851562 " fill-opacity="1" fill-rule="nonzero"/></g></svg>